<?xml version="1.0" encoding="UTF-8"?>
<svg xmlns="http://www.w3.org/2000/svg" style="display: none;">
<symbol id="user" viewBox="0 0 448 512">
<path d="M320 128a96 96 0 1 0 -192 0 96 96 0 1 0 192 0zM96 128a128 128 0 1 1 256 0A128 128 0 1 1 96 128zM32 480H416c-1.2-79.7-66.2-144-146.3-144H178.3c-80 0-145 64.3-146.3 144zM0 482.3C0 383.8 79.8 304 178.3 304h91.4C368.2 304 448 383.8 448 482.3c0 16.4-13.3 29.7-29.7 29.7H29.7C13.3 512 0 498.7 0 482.3z"/>
</symbol>
<symbol id="trash-can" viewBox="0 0 448 512">
<path d="M164.2 39.5L148.9 64H299.1L283.8 39.5c-2.9-4.7-8.1-7.5-13.6-7.5H177.7c-5.5 0-10.6 2.8-13.6 7.5zM311 22.6L336.9 64H384h32 16c8.8 0 16 7.2 16 16s-7.2 16-16 16H416V432c0 44.2-35.8 80-80 80H112c-44.2 0-80-35.8-80-80V96H16C7.2 96 0 88.8 0 80s7.2-16 16-16H32 64h47.1L137 22.6C145.8 8.5 161.2 0 177.7 0h92.5c16.6 0 31.9 8.5 40.7 22.6zM64 96V432c0 26.5 21.5 48 48 48H336c26.5 0 48-21.5 48-48V96H64zm80 80V400c0 8.8-7.2 16-16 16s-16-7.2-16-16V176c0-8.8 7.2-16 16-16s16 7.2 16 16zm96 0V400c0 8.8-7.2 16-16 16s-16-7.2-16-16V176c0-8.8 7.2-16 16-16s16 7.2 16 16zm96 0V400c0 8.8-7.2 16-16 16s-16-7.2-16-16V176c0-8.8 7.2-16 16-16s16 7.2 16 16z"/>
</symbol>
<symbol id="upload" viewBox="0 0 512 512">
<path d="M272 54.6V368c0 8.8-7.2 16-16 16s-16-7.2-16-16V54.6L139.3 155.3c-6.2 6.2-16.4 6.2-22.6 0s-6.2-16.4 0-22.6l128-128c6.2-6.2 16.4-6.2 22.6 0l128 128c6.2 6.2 6.2 16.4 0 22.6s-16.4 6.2-22.6 0L272 54.6zM208 352H64c-17.7 0-32 14.3-32 32v64c0 17.7 14.3 32 32 32H448c17.7 0 32-14.3 32-32V384c0-17.7-14.3-32-32-32H304V320H448c35.3 0 64 28.7 64 64v64c0 35.3-28.7 64-64 64H64c-35.3 0-64-28.7-64-64V384c0-35.3 28.7-64 64-64H208v32zm176 64a24 24 0 1 1 48 0 24 24 0 1 1 -48 0z"/>
</symbol>
<symbol id="square-o" viewBox="0 0 448 512">
<path d="M64 64C46.3 64 32 78.3 32 96V416c0 17.7 14.3 32 32 32H384c17.7 0 32-14.3 32-32V96c0-17.7-14.3-32-32-32H64zM0 96C0 60.7 28.7 32 64 32H384c35.3 0 64 28.7 64 64V416c0 35.3-28.7 64-64 64H64c-35.3 0-64-28.7-64-64V96zM128 256a96 96 0 1 0 192 0 96 96 0 1 0 -192 0zm96 128a128 128 0 1 1 0-256 128 128 0 1 1 0 256z"/>
</symbol>
<symbol id="file" viewBox="0 0 384 512">
<path d="M352 448V192H240c-26.5 0-48-21.5-48-48V32H64C46.3 32 32 46.3 32 64V448c0 17.7 14.3 32 32 32H320c17.7 0 32-14.3 32-32zm-.5-288c-.7-2.8-2.1-5.4-4.2-7.4L231.4 36.7c-2.1-2.1-4.6-3.5-7.4-4.2V144c0 8.8 7.2 16 16 16H351.5zM0 64C0 28.7 28.7 0 64 0H220.1c12.7 0 24.9 5.1 33.9 14.1L369.9 129.9c9 9 14.1 21.2 14.1 33.9V448c0 35.3-28.7 64-64 64H64c-35.3 0-64-28.7-64-64V64z"/>
</symbol>
<symbol id="anchor" viewBox="0 0 576 512">
<path d="M336 80a48 48 0 1 1 -96 0 48 48 0 1 1 96 0zM288 0c-44.2 0-80 35.8-80 80c0 38.7 27.5 71 64.1 78.4c-.1 .5-.1 1-.1 1.6v32H208c-8.8 0-16 7.2-16 16s7.2 16 16 16h64V480H240c-79.5 0-144-64.5-144-144V310.6l36.7 36.7c6.2 6.2 16.4 6.2 22.6 0s6.2-16.4 0-22.6l-64-64c-6.2-6.2-16.4-6.2-22.6 0l-64 64c-6.2 6.2-6.2 16.4 0 22.6s16.4 6.2 22.6 0L64 310.6V336c0 97.2 78.8 176 176 176h48 48c97.2 0 176-78.8 176-176V310.6l36.7 36.7c6.2 6.2 16.4 6.2 22.6 0s6.2-16.4 0-22.6l-64-64c-6.2-6.2-16.4-6.2-22.6 0l-64 64c-6.2 6.2-6.2 16.4 0 22.6s16.4 6.2 22.6 0L480 310.6V336c0 79.5-64.5 144-144 144H304V224h64c8.8 0 16-7.2 16-16s-7.2-16-16-16H304V160c0-.5 0-1.1-.1-1.6C340.5 151 368 118.7 368 80c0-44.2-35.8-80-80-80z"/>
</symbol>
<symbol id="plus" viewBox="0 0 448 512">
<path d="M240 64c0-8.8-7.2-16-16-16s-16 7.2-16 16V240H32c-8.8 0-16 7.2-16 16s7.2 16 16 16H208V448c0 8.8 7.2 16 16 16s16-7.2 16-16V272H416c8.8 0 16-7.2 16-16s-7.2-16-16-16H240V64z"/>
</symbol>
<symbol id="comments" viewBox="0 0 640 512">
<path d="M32 176c0-74.8 73.7-144 176-144s176 69.2 176 144s-73.7 144-176 144c-15.3 0-30.6-1.9-46.3-5c-3.5-.7-7.1-.2-10.2 1.4c-6.1 3.1-12 6-18 8.7c-28.4 12.9-60.2 23.1-91.5 26c14.9-19 26.8-39.7 37.6-59.9c3.3-6.1 2.3-13.6-2.5-18.6C50 244.2 32 213.1 32 176zM208 0C93.1 0 0 78.9 0 176c0 44.2 19.8 80.1 46 110c-11.7 21-24 40.6-39.5 57.5l0 0-.1 .1c-6.5 7-8.2 17.1-4.4 25.8C5.8 378.3 14.4 384 24 384c43 0 86.5-13.3 122.7-29.7c4.9-2.2 9.6-4.5 14.3-6.8c15.3 2.8 30.9 4.6 47 4.6c114.9 0 208-78.9 208-176S322.9 0 208 0zM447.4 160.5C541.6 167 608 233 608 304c0 37.1-18 68.2-45.1 96.6c-4.8 5-5.8 12.5-2.5 18.6c10.9 20.2 22.7 40.8 37.6 59.9c-31.3-3-63.2-13.2-91.5-26c-6-2.7-11.9-5.6-18-8.7c-3.2-1.6-6.8-2.1-10.2-1.4c-15.6 3.1-30.9 5-46.3 5c-68.2 0-123.6-30.7-153.1-73.3c-11 3-22.3 5.2-33.8 6.8C279 439.8 349.9 480 432 480c16.1 0 31.7-1.8 47-4.6c4.6 2.3 9.4 4.6 14.3 6.8C529.5 498.7 573 512 616 512c9.6 0 18.2-5.7 22-14.5c3.8-8.7 2-18.9-4.4-25.8l-.1-.1 0 0c-15.5-17-27.8-36.5-39.5-57.5c26.2-29.9 46-65.8 46-110c0-94.4-87.8-171.5-198.2-175.8c2.8 10.4 4.7 21.2 5.6 32.3z"/>
</symbol>
<symbol id="download" viewBox="0 0 512 512">
<path d="M272 16c0-8.8-7.2-16-16-16s-16 7.2-16 16V329.4L139.3 228.7c-6.2-6.2-16.4-6.2-22.6 0s-6.2 16.4 0 22.6l128 128c6.2 6.2 16.4 6.2 22.6 0l128-128c6.2-6.2 6.2-16.4 0-22.6s-16.4-6.2-22.6 0L272 329.4V16zM140.1 320H64c-35.3 0-64 28.7-64 64v64c0 35.3 28.7 64 64 64H448c35.3 0 64-28.7 64-64V384c0-35.3-28.7-64-64-64H371.9l-32 32H448c17.7 0 32 14.3 32 32v64c0 17.7-14.3 32-32 32H64c-17.7 0-32-14.3-32-32V384c0-17.7 14.3-32 32-32H172.1l-32-32zM432 416a24 24 0 1 0 -48 0 24 24 0 1 0 48 0z"/>
</symbol>
<symbol id="arrow-rotate-left" viewBox="0 0 512 512">
<path d="M48 192c-8.8 0-16-7.2-16-16V48c0-8.8 7.2-16 16-16s16 7.2 16 16v92.6C103.2 75.5 174.5 32 256 32c123.7 0 224 100.3 224 224s-100.3 224-224 224c-79.9 0-150-41.8-189.7-104.8C59.8 364.8 67.7 352 80 352c6 0 11.4 3.2 14.7 8.2C128.9 413 188.4 448 256 448c106 0 192-86 192-192s-86-192-192-192c-71.1 0-133.1 38.6-166.3 96H176c8.8 0 16 7.2 16 16s-7.2 16-16 16H48z"/>
</symbol>
<symbol id="triangle-exclamation" viewBox="0 0 512 512">
<path d="M34.5 420.4c-1.6 2.8-2.5 6-2.5 9.3c0 10.2 8.2 18.4 18.4 18.4H461.6c10.2 0 18.4-8.2 18.4-18.4c0-3.3-.9-6.4-2.5-9.3L276.5 75.8C272.2 68.5 264.4 64 256 64s-16.2 4.5-20.5 11.8L34.5 420.4zM6.9 404.2l201-344.6C217.9 42.5 236.2 32 256 32s38.1 10.5 48.1 27.6l201 344.6c4.5 7.7 6.9 16.5 6.9 25.4c0 27.8-22.6 50.4-50.4 50.4H50.4C22.6 480 0 457.4 0 429.6c0-8.9 2.4-17.7 6.9-25.4zM256 160c8.8 0 16 7.2 16 16V304c0 8.8-7.2 16-16 16s-16-7.2-16-16V176c0-8.8 7.2-16 16-16zM232 384a24 24 0 1 1 48 0 24 24 0 1 1 -48 0z"/>
</symbol>
<symbol id="envelope" viewBox="0 0 512 512">
<path d="M64 96c-17.7 0-32 14.3-32 32v39.9L227.6 311.3c16.9 12.4 39.9 12.4 56.8 0L480 167.9V128c0-17.7-14.3-32-32-32H64zM32 207.6V384c0 17.7 14.3 32 32 32H448c17.7 0 32-14.3 32-32V207.6L303.3 337.1c-28.2 20.6-66.5 20.6-94.6 0L32 207.6zM0 128C0 92.7 28.7 64 64 64H448c35.3 0 64 28.7 64 64V384c0 35.3-28.7 64-64 64H64c-35.3 0-64-28.7-64-64V128z"/>
</symbol>
<symbol id="camera" viewBox="0 0 512 512">
<path d="M191.1 32c-20.7 0-39 13.2-45.5 32.8L135.1 96H64C28.7 96 0 124.7 0 160V416c0 35.3 28.7 64 64 64H448c35.3 0 64-28.7 64-64V160c0-35.3-28.7-64-64-64H376.9L366.5 64.8C359.9 45.2 341.6 32 320.9 32H191.1zM175.9 74.9c2.2-6.5 8.3-10.9 15.2-10.9H320.9c6.9 0 13 4.4 15.2 10.9l14 42.1c2.2 6.5 8.3 10.9 15.2 10.9H448c17.7 0 32 14.3 32 32V416c0 17.7-14.3 32-32 32H64c-17.7 0-32-14.3-32-32V160c0-17.7 14.3-32 32-32h82.7c6.9 0 13-4.4 15.2-10.9l14-42.1zM256 400a112 112 0 1 0 0-224 112 112 0 1 0 0 224zM176 288a80 80 0 1 1 160 0 80 80 0 1 1 -160 0z"/>
</symbol>
<symbol id="circle-plus" viewBox="0 0 512 512">
<path d="M256 32a224 224 0 1 1 0 448 224 224 0 1 1 0-448zm0 480A256 256 0 1 0 256 0a256 256 0 1 0 0 512zM240 352c0 8.8 7.2 16 16 16s16-7.2 16-16V272h80c8.8 0 16-7.2 16-16s-7.2-16-16-16H272V160c0-8.8-7.2-16-16-16s-16 7.2-16 16v80H160c-8.8 0-16 7.2-16 16s7.2 16 16 16h80v80z"/>
</symbol>
<symbol id="lock-open" viewBox="0 0 576 512">
<path d="M352 128c0-53 43-96 96-96s96 43 96 96v80c0 8.8 7.2 16 16 16s16-7.2 16-16V128C576 57.3 518.7 0 448 0S320 57.3 320 128v64H80c-44.2 0-80 35.8-80 80V432c0 44.2 35.8 80 80 80H368c44.2 0 80-35.8 80-80V272c0-44.2-35.8-80-80-80H352V128zm-16 96h32c26.5 0 48 21.5 48 48V432c0 26.5-21.5 48-48 48H80c-26.5 0-48-21.5-48-48V272c0-26.5 21.5-48 48-48H336z"/>
</symbol>
<symbol id="unlock" viewBox="0 0 448 512">
<path d="M128 128c0-53 43-96 96-96c43.5 0 80.2 28.9 92 68.6c2.5 8.5 11.4 13.3 19.9 10.8s13.3-11.4 10.8-19.9C331 38.6 282 0 224 0C153.3 0 96 57.3 96 128v64H80c-44.2 0-80 35.8-80 80V432c0 44.2 35.8 80 80 80H368c44.2 0 80-35.8 80-80V272c0-44.2-35.8-80-80-80H128V128zM32 272c0-26.5 21.5-48 48-48H368c26.5 0 48 21.5 48 48V432c0 26.5-21.5 48-48 48H80c-26.5 0-48-21.5-48-48V272z"/>
</symbol>
<symbol id="check" viewBox="0 0 448 512">
<path d="M443.3 100.7c6.2 6.2 6.2 16.4 0 22.6l-272 272c-6.2 6.2-16.4 6.2-22.6 0l-144-144c-6.2-6.2-6.2-16.4 0-22.6s16.4-6.2 22.6 0L160 361.4 420.7 100.7c6.2-6.2 16.4-6.2 22.6 0z"/>
</symbol>
</svg>