<?xml version="1.0" encoding="UTF-8"?>
<svg xmlns="http://www.w3.org/2000/svg" style="display: none;">
<symbol id="trash-can" viewBox="0 0 448 512">
<path d="M164.2 39.5L148.9 64l150.3 0L283.8 39.5c-2.9-4.7-8.1-7.5-13.6-7.5l-92.5 0c-5.5 0-10.6 2.8-13.6 7.5zM311 22.6L336.9 64 384 64l32 0 16 0c8.8 0 16 7.2 16 16s-7.2 16-16 16l-16 0 0 336c0 44.2-35.8 80-80 80l-224 0c-44.2 0-80-35.8-80-80L32 96 16 96C7.2 96 0 88.8 0 80s7.2-16 16-16l16 0 32 0 47.1 0L137 22.6C145.8 8.5 161.2 0 177.7 0l92.5 0c16.6 0 31.9 8.5 40.7 22.6zM64 96l0 336c0 26.5 21.5 48 48 48l224 0c26.5 0 48-21.5 48-48l0-336L64 96zm80 80l0 224c0 8.8-7.2 16-16 16s-16-7.2-16-16l0-224c0-8.8 7.2-16 16-16s16 7.2 16 16zm96 0l0 224c0 8.8-7.2 16-16 16s-16-7.2-16-16l0-224c0-8.8 7.2-16 16-16s16 7.2 16 16zm96 0l0 224c0 8.8-7.2 16-16 16s-16-7.2-16-16l0-224c0-8.8 7.2-16 16-16s16 7.2 16 16z"/>
</symbol>
<symbol id="image-user" viewBox="0 0 512 512">
<path d="M64 64C46.3 64 32 78.3 32 96l0 320c0 17.7 14.3 32 32 32l384 0c17.7 0 32-14.3 32-32l0-320c0-17.7-14.3-32-32-32L64 64zM0 96C0 60.7 28.7 32 64 32l384 0c35.3 0 64 28.7 64 64l0 320c0 35.3-28.7 64-64 64L64 480c-35.3 0-64-28.7-64-64L0 96zm288 96a32 32 0 1 0 -64 0 32 32 0 1 0 64 0zm-96 0a64 64 0 1 1 128 0 64 64 0 1 1 -128 0zM299.4 320l-86.9 0c-18.6 0-34 14-36.3 32l159.4 0c-2.2-18-17.6-32-36.3-32zm-86.9-32l43.4 0 43.4 0c37.9 0 68.6 30.7 68.6 68.6c0 15.1-12.3 27.4-27.4 27.4l-169.1 0c-15.1 0-27.4-12.3-27.4-27.4c0-37.9 30.7-68.6 68.6-68.6z"/>
</symbol>
<symbol id="lock" viewBox="0 0 448 512">
<path d="M128 128l0 64 192 0 0-64c0-53-43-96-96-96s-96 43-96 96zM96 192l0-64C96 57.3 153.3 0 224 0s128 57.3 128 128l0 64 16 0c44.2 0 80 35.8 80 80l0 160c0 44.2-35.8 80-80 80L80 512c-44.2 0-80-35.8-80-80L0 272c0-44.2 35.8-80 80-80l16 0zM32 272l0 160c0 26.5 21.5 48 48 48l288 0c26.5 0 48-21.5 48-48l0-160c0-26.5-21.5-48-48-48L80 224c-26.5 0-48 21.5-48 48z"/>
</symbol>
<symbol id="triangle-exclamation" viewBox="0 0 512 512">
<path d="M34.5 420.4c-1.6 2.8-2.5 6-2.5 9.3c0 10.2 8.2 18.4 18.4 18.4l411.2 0c10.2 0 18.4-8.2 18.4-18.4c0-3.3-.9-6.4-2.5-9.3L276.5 75.8C272.2 68.5 264.4 64 256 64s-16.2 4.5-20.5 11.8L34.5 420.4zM6.9 404.2l201-344.6C217.9 42.5 236.2 32 256 32s38.1 10.5 48.1 27.6l201 344.6c4.5 7.7 6.9 16.5 6.9 25.4c0 27.8-22.6 50.4-50.4 50.4L50.4 480C22.6 480 0 457.4 0 429.6c0-8.9 2.4-17.7 6.9-25.4zM256 160c8.8 0 16 7.2 16 16l0 128c0 8.8-7.2 16-16 16s-16-7.2-16-16l0-128c0-8.8 7.2-16 16-16zM232 384a24 24 0 1 1 48 0 24 24 0 1 1 -48 0z"/>
</symbol>
<symbol id="download" viewBox="0 0 512 512">
<path d="M272 16c0-8.8-7.2-16-16-16s-16 7.2-16 16l0 313.4L139.3 228.7c-6.2-6.2-16.4-6.2-22.6 0s-6.2 16.4 0 22.6l128 128c6.2 6.2 16.4 6.2 22.6 0l128-128c6.2-6.2 6.2-16.4 0-22.6s-16.4-6.2-22.6 0L272 329.4 272 16zM140.1 320L64 320c-35.3 0-64 28.7-64 64l0 64c0 35.3 28.7 64 64 64l384 0c35.3 0 64-28.7 64-64l0-64c0-35.3-28.7-64-64-64l-76.1 0-32 32L448 352c17.7 0 32 14.3 32 32l0 64c0 17.7-14.3 32-32 32L64 480c-17.7 0-32-14.3-32-32l0-64c0-17.7 14.3-32 32-32l108.1 0-32-32zM432 416a24 24 0 1 0 -48 0 24 24 0 1 0 48 0z"/>
</symbol>
<symbol id="user" viewBox="0 0 448 512">
<path d="M320 128a96 96 0 1 0 -192 0 96 96 0 1 0 192 0zM96 128a128 128 0 1 1 256 0A128 128 0 1 1 96 128zM32 480l384 0c-1.2-79.7-66.2-144-146.3-144l-91.4 0c-80 0-145 64.3-146.3 144zM0 482.3C0 383.8 79.8 304 178.3 304l91.4 0C368.2 304 448 383.8 448 482.3c0 16.4-13.3 29.7-29.7 29.7L29.7 512C13.3 512 0 498.7 0 482.3z"/>
</symbol>
<symbol id="check" viewBox="0 0 448 512">
<path d="M443.3 100.7c6.2 6.2 6.2 16.4 0 22.6l-272 272c-6.2 6.2-16.4 6.2-22.6 0l-144-144c-6.2-6.2-6.2-16.4 0-22.6s16.4-6.2 22.6 0L160 361.4 420.7 100.7c6.2-6.2 16.4-6.2 22.6 0z"/>
</symbol>
<symbol id="thumbs-up" viewBox="0 0 512 512">
<path d="M288.8 81.7c3.5-12.8 16.7-20.3 29.5-16.8s20.3 16.7 16.8 29.5l-4.5 16.4c-5.5 20.2-13.9 39.3-24.7 56.9c-3.1 4.9-3.2 11.1-.4 16.2s8.2 8.2 14 8.2L448 192c17.7 0 32 14.3 32 32c0 11.3-5.9 21.3-14.8 27c-7.2 4.6-9.5 13.9-5.3 21.3c2.6 4.6 4.1 10 4.1 15.7c0 12.4-7 23.1-17.3 28.5c-4.2 2.2-7.3 6.1-8.3 10.8s.1 9.5 3 13.2c4.2 5.4 6.7 12.2 6.7 19.5c0 14.2-9.2 26.3-22.1 30.4c-7.8 2.5-12.4 10.6-10.7 18.6c.5 2.2 .7 4.5 .7 6.9c0 17.7-14.3 32-32 32l-89.5 0c-15.8 0-31.2-4.7-44.4-13.4l-38.5-25.7c-9-6-16.6-13.7-22.4-22.6c-4.9-7.4-14.8-9.4-22.2-4.6s-9.4 14.8-4.6 22.2c8.1 12.3 18.7 23.1 31.4 31.6l38.5 25.7c18.4 12.3 40 18.8 62.1 18.8l89.5 0c35.3 0 64-28.7 64-64l0-.6c19.1-11.1 32-31.7 32-55.4c0-8.7-1.8-17.1-4.9-24.7C487.9 323.6 496 306.8 496 288c0-6.5-1-12.8-2.8-18.7C504.8 257.7 512 241.7 512 224c0-35.3-28.7-64-64-64l-101.6 0c6.2-13.1 11.3-26.7 15.1-40.9l4.5-16.4c8.1-29.8-9.5-60.6-39.3-68.8s-60.6 9.5-68.8 39.3l-4.5 16.4c-8.9 32.6-29.6 60.8-58.2 79l-3.1 2c-11.8 7.5-21.7 17.1-29.5 28.2c-5.1 7.2-3.3 17.2 4 22.3s17.2 3.3 22.3-4c5.4-7.7 12.2-14.4 20.4-19.5l3.1-2c35.3-22.4 60.9-57.2 71.9-97.5l4.5-16.4zM32 224l64 0 0 224-64 0 0-224zM0 224L0 448c0 17.7 14.3 32 32 32l64 0c17.7 0 32-14.3 32-32l0-224c0-17.7-14.3-32-32-32l-64 0c-17.7 0-32 14.3-32 32z"/>
</symbol>
<symbol id="camera" viewBox="0 0 512 512">
<path d="M191.1 32c-20.7 0-39 13.2-45.5 32.8L135.1 96 64 96C28.7 96 0 124.7 0 160L0 416c0 35.3 28.7 64 64 64l384 0c35.3 0 64-28.7 64-64l0-256c0-35.3-28.7-64-64-64l-71.1 0L366.5 64.8C359.9 45.2 341.6 32 320.9 32L191.1 32zM175.9 74.9c2.2-6.5 8.3-10.9 15.2-10.9l129.9 0c6.9 0 13 4.4 15.2 10.9l14 42.1c2.2 6.5 8.3 10.9 15.2 10.9l82.7 0c17.7 0 32 14.3 32 32l0 256c0 17.7-14.3 32-32 32L64 448c-17.7 0-32-14.3-32-32l0-256c0-17.7 14.3-32 32-32l82.7 0c6.9 0 13-4.4 15.2-10.9l14-42.1zM256 400a112 112 0 1 0 0-224 112 112 0 1 0 0 224zM176 288a80 80 0 1 1 160 0 80 80 0 1 1 -160 0z"/>
</symbol>
<symbol id="file" viewBox="0 0 384 512">
<path d="M352 448l0-256-112 0c-26.5 0-48-21.5-48-48l0-112L64 32C46.3 32 32 46.3 32 64l0 384c0 17.7 14.3 32 32 32l256 0c17.7 0 32-14.3 32-32zm-.5-288c-.7-2.8-2.1-5.4-4.2-7.4L231.4 36.7c-2.1-2.1-4.6-3.5-7.4-4.2L224 144c0 8.8 7.2 16 16 16l111.5 0zM0 64C0 28.7 28.7 0 64 0L220.1 0c12.7 0 24.9 5.1 33.9 14.1L369.9 129.9c9 9 14.1 21.2 14.1 33.9L384 448c0 35.3-28.7 64-64 64L64 512c-35.3 0-64-28.7-64-64L0 64z"/>
</symbol>
<symbol id="comments" viewBox="0 0 640 512">
<path d="M32 176c0-74.8 73.7-144 176-144s176 69.2 176 144s-73.7 144-176 144c-15.3 0-30.6-1.9-46.3-5c-3.5-.7-7.1-.2-10.2 1.4c-6.1 3.1-12 6-18 8.7c-28.4 12.9-60.2 23.1-91.5 26c14.9-19 26.8-39.7 37.6-59.9c3.3-6.1 2.3-13.6-2.5-18.6C50 244.2 32 213.1 32 176zM208 0C93.1 0 0 78.9 0 176c0 44.2 19.8 80.1 46 110c-11.7 21-24 40.6-39.5 57.5c0 0 0 0 0 0l-.1 .1c-6.5 7-8.2 17.1-4.4 25.8C5.8 378.3 14.4 384 24 384c43 0 86.5-13.3 122.7-29.7c4.9-2.2 9.6-4.5 14.3-6.8c15.3 2.8 30.9 4.6 47 4.6c114.9 0 208-78.9 208-176S322.9 0 208 0zM447.4 160.5C541.6 167 608 233 608 304c0 37.1-18 68.2-45.1 96.6c-4.8 5-5.8 12.5-2.5 18.6c10.9 20.2 22.7 40.8 37.6 59.9c-31.3-3-63.2-13.2-91.5-26c-6-2.7-11.9-5.6-18-8.7c-3.2-1.6-6.8-2.1-10.2-1.4c-15.6 3.1-30.9 5-46.3 5c-68.2 0-123.6-30.7-153.1-73.3c-11 3-22.3 5.2-33.8 6.8C279 439.8 349.9 480 432 480c16.1 0 31.7-1.8 47-4.6c4.6 2.3 9.4 4.6 14.3 6.8C529.5 498.7 573 512 616 512c9.6 0 18.2-5.7 22-14.5c3.8-8.7 2-18.9-4.4-25.8l-.1-.1s0 0 0 0c-15.5-17-27.8-36.5-39.5-57.5c26.2-29.9 46-65.8 46-110c0-94.4-87.8-171.5-198.2-175.8c2.8 10.4 4.7 21.2 5.6 32.3z"/>
</symbol>
<symbol id="unlock" viewBox="0 0 448 512">
<path d="M128 128c0-53 43-96 96-96c43.5 0 80.2 28.9 92 68.6c2.5 8.5 11.4 13.3 19.9 10.8s13.3-11.4 10.8-19.9C331 38.6 282 0 224 0C153.3 0 96 57.3 96 128l0 64-16 0c-44.2 0-80 35.8-80 80L0 432c0 44.2 35.8 80 80 80l288 0c44.2 0 80-35.8 80-80l0-160c0-44.2-35.8-80-80-80l-240 0 0-64zM32 272c0-26.5 21.5-48 48-48l288 0c26.5 0 48 21.5 48 48l0 160c0 26.5-21.5 48-48 48L80 480c-26.5 0-48-21.5-48-48l0-160z"/>
</symbol>
<symbol id="lock-open" viewBox="0 0 576 512">
<path d="M352 128c0-53 43-96 96-96s96 43 96 96l0 80c0 8.8 7.2 16 16 16s16-7.2 16-16l0-80C576 57.3 518.7 0 448 0S320 57.3 320 128l0 64L80 192c-44.2 0-80 35.8-80 80L0 432c0 44.2 35.8 80 80 80l288 0c44.2 0 80-35.8 80-80l0-160c0-44.2-35.8-80-80-80l-16 0 0-64zm-16 96l32 0c26.5 0 48 21.5 48 48l0 160c0 26.5-21.5 48-48 48L80 480c-26.5 0-48-21.5-48-48l0-160c0-26.5 21.5-48 48-48l256 0z"/>
</symbol>
<symbol id="upload" viewBox="0 0 512 512">
<path d="M272 54.6L272 368c0 8.8-7.2 16-16 16s-16-7.2-16-16l0-313.4L139.3 155.3c-6.2 6.2-16.4 6.2-22.6 0s-6.2-16.4 0-22.6l128-128c6.2-6.2 16.4-6.2 22.6 0l128 128c6.2 6.2 6.2 16.4 0 22.6s-16.4 6.2-22.6 0L272 54.6zM208 352L64 352c-17.7 0-32 14.3-32 32l0 64c0 17.7 14.3 32 32 32l384 0c17.7 0 32-14.3 32-32l0-64c0-17.7-14.3-32-32-32l-144 0 0-32 144 0c35.3 0 64 28.7 64 64l0 64c0 35.3-28.7 64-64 64L64 512c-35.3 0-64-28.7-64-64l0-64c0-35.3 28.7-64 64-64l144 0 0 32zm176 64a24 24 0 1 1 48 0 24 24 0 1 1 -48 0z"/>
</symbol>
<symbol id="passport" viewBox="0 0 448 512">
<path d="M384 32c17.7 0 32 14.3 32 32l0 384c0 17.7-14.3 32-32 32L64 480c-17.7 0-32-14.3-32-32L32 64c0-17.7 14.3-32 32-32l320 0zM64 0C28.7 0 0 28.7 0 64L0 448c0 35.3 28.7 64 64 64l320 0c35.3 0 64-28.7 64-64l0-384c0-35.3-28.7-64-64-64L64 0zM96 400c0 8.8 7.2 16 16 16l224 0c8.8 0 16-7.2 16-16s-7.2-16-16-16l-224 0c-8.8 0-16 7.2-16 16zm33.3-192l39.1 0c1.6 30.4 7.7 53.8 14.6 70.8c-27.9-13.2-48.4-39.4-53.7-70.8zM224 288l-.3 0c-2.4-3.5-5.7-8.9-9.1-16.5c-6-13.6-12.4-34.3-14.2-63.5l47.1 0c-1.8 29.2-8.1 49.9-14.2 63.5c-3.4 7.6-6.7 13-9.1 16.5l-.3 0zm94.7-80c-5.3 31.4-25.8 57.6-53.7 70.8c6.8-17.1 12.9-40.4 14.6-70.8l39.1 0zm0-32l-39.1 0c-1.6-30.4-7.7-53.8-14.6-70.8c27.9 13.2 48.4 39.4 53.7 70.8zM224 96l.3 0c2.4 3.5 5.7 8.9 9.1 16.5c6 13.6 12.4 34.3 14.2 63.5l-47.1 0c1.8-29.2 8.1-49.9 14.2-63.5c3.4-7.6 6.7-13 9.1-16.5l.3 0zm-94.7 80c5.3-31.4 25.8-57.6 53.7-70.8c-6.8 17.1-12.9 40.4-14.6 70.8l-39.1 0zM224 320a128 128 0 1 0 0-256 128 128 0 1 0 0 256z"/>
</symbol>
<symbol id="arrow-rotate-left" viewBox="0 0 512 512">
<path d="M48 192c-8.8 0-16-7.2-16-16L32 48c0-8.8 7.2-16 16-16s16 7.2 16 16l0 92.6C103.2 75.5 174.5 32 256 32c123.7 0 224 100.3 224 224s-100.3 224-224 224c-79.9 0-150-41.8-189.7-104.8C59.8 364.8 67.7 352 80 352c6 0 11.4 3.2 14.7 8.2C128.9 413 188.4 448 256 448c106 0 192-86 192-192s-86-192-192-192c-71.1 0-133.1 38.6-166.3 96l86.3 0c8.8 0 16 7.2 16 16s-7.2 16-16 16L48 192z"/>
</symbol>
<symbol id="envelope" viewBox="0 0 512 512">
<path d="M64 96c-17.7 0-32 14.3-32 32l0 39.9L227.6 311.3c16.9 12.4 39.9 12.4 56.8 0L480 167.9l0-39.9c0-17.7-14.3-32-32-32L64 96zM32 207.6L32 384c0 17.7 14.3 32 32 32l384 0c17.7 0 32-14.3 32-32l0-176.4L303.3 337.1c-28.2 20.6-66.5 20.6-94.6 0L32 207.6zM0 128C0 92.7 28.7 64 64 64l384 0c35.3 0 64 28.7 64 64l0 256c0 35.3-28.7 64-64 64L64 448c-35.3 0-64-28.7-64-64L0 128z"/>
</symbol>
<symbol id="plus" viewBox="0 0 448 512">
<path d="M240 64c0-8.8-7.2-16-16-16s-16 7.2-16 16l0 176L32 240c-8.8 0-16 7.2-16 16s7.2 16 16 16l176 0 0 176c0 8.8 7.2 16 16 16s16-7.2 16-16l0-176 176 0c8.8 0 16-7.2 16-16s-7.2-16-16-16l-176 0 0-176z"/>
</symbol>
<symbol id="anchor" viewBox="0 0 576 512">
<path d="M336 80a48 48 0 1 1 -96 0 48 48 0 1 1 96 0zM288 0c-44.2 0-80 35.8-80 80c0 38.7 27.5 71 64.1 78.4c-.1 .5-.1 1-.1 1.6l0 32-64 0c-8.8 0-16 7.2-16 16s7.2 16 16 16l64 0 0 256-32 0c-79.5 0-144-64.5-144-144l0-25.4 36.7 36.7c6.2 6.2 16.4 6.2 22.6 0s6.2-16.4 0-22.6l-64-64c-6.2-6.2-16.4-6.2-22.6 0l-64 64c-6.2 6.2-6.2 16.4 0 22.6s16.4 6.2 22.6 0L64 310.6 64 336c0 97.2 78.8 176 176 176l48 0 48 0c97.2 0 176-78.8 176-176l0-25.4 36.7 36.7c6.2 6.2 16.4 6.2 22.6 0s6.2-16.4 0-22.6l-64-64c-6.2-6.2-16.4-6.2-22.6 0l-64 64c-6.2 6.2-6.2 16.4 0 22.6s16.4 6.2 22.6 0L480 310.6l0 25.4c0 79.5-64.5 144-144 144l-32 0 0-256 64 0c8.8 0 16-7.2 16-16s-7.2-16-16-16l-64 0 0-32c0-.5 0-1.1-.1-1.6C340.5 151 368 118.7 368 80c0-44.2-35.8-80-80-80z"/>
</symbol>
<symbol id="circle-plus" viewBox="0 0 512 512">
<path d="M256 32a224 224 0 1 1 0 448 224 224 0 1 1 0-448zm0 480A256 256 0 1 0 256 0a256 256 0 1 0 0 512zM240 352c0 8.8 7.2 16 16 16s16-7.2 16-16l0-80 80 0c8.8 0 16-7.2 16-16s-7.2-16-16-16l-80 0 0-80c0-8.8-7.2-16-16-16s-16 7.2-16 16l0 80-80 0c-8.8 0-16 7.2-16 16s7.2 16 16 16l80 0 0 80z"/>
</symbol>
<symbol id="square-o" viewBox="0 0 448 512">
<path d="M64 64C46.3 64 32 78.3 32 96l0 320c0 17.7 14.3 32 32 32l320 0c17.7 0 32-14.3 32-32l0-320c0-17.7-14.3-32-32-32L64 64zM0 96C0 60.7 28.7 32 64 32l320 0c35.3 0 64 28.7 64 64l0 320c0 35.3-28.7 64-64 64L64 480c-35.3 0-64-28.7-64-64L0 96zM128 256a96 96 0 1 0 192 0 96 96 0 1 0 -192 0zm96 128a128 128 0 1 1 0-256 128 128 0 1 1 0 256z"/>
</symbol>
</svg>