<?xml version="1.0" encoding="UTF-8"?>
<svg xmlns="http://www.w3.org/2000/svg" style="display: none;">
<symbol id="passport" viewBox="0 0 448 512">
<path d="M384 48c8.8 0 16 7.2 16 16l0 384c0 8.8-7.2 16-16 16L64 464c-8.8 0-16-7.2-16-16L48 64c0-8.8 7.2-16 16-16l320 0zM64 0C28.7 0 0 28.7 0 64L0 448c0 35.3 28.7 64 64 64l320 0c35.3 0 64-28.7 64-64l0-384c0-35.3-28.7-64-64-64L64 0zM96 400c0 8.8 7.2 16 16 16l224 0c8.8 0 16-7.2 16-16s-7.2-16-16-16l-224 0c-8.8 0-16 7.2-16 16zm33.3-176l39.1 0c1.6 30.4 7.7 53.8 14.6 70.8c-27.9-13.2-48.4-39.4-53.7-70.8zM224 304l-.3 0c-2.4-3.5-5.7-8.9-9.1-16.5c-6-13.6-12.4-34.3-14.2-63.5l47.1 0c-1.8 29.2-8.1 49.9-14.2 63.5c-3.4 7.6-6.7 13-9.1 16.5l-.3 0zm94.7-80c-5.3 31.4-25.8 57.6-53.7 70.8c6.8-17.1 12.9-40.4 14.6-70.8l39.1 0zm0-32l-39.1 0c-1.6-30.4-7.7-53.8-14.6-70.8c27.9 13.2 48.4 39.4 53.7 70.8zM224 112l.3 0c2.4 3.5 5.7 8.9 9.1 16.5c6 13.6 12.4 34.3 14.2 63.5l-47.1 0c1.8-29.2 8.1-49.9 14.2-63.5c3.4-7.6 6.7-13 9.1-16.5l.3 0zm-94.7 80c5.3-31.4 25.8-57.6 53.7-70.8c-6.8 17.1-12.9 40.4-14.6 70.8l-39.1 0zM224 336a128 128 0 1 0 0-256 128 128 0 1 0 0 256z"/>
</symbol>
<symbol id="circle-xmark" viewBox="0 0 512 512">
<path d="M256 48a208 208 0 1 1 0 416 208 208 0 1 1 0-416zm0 464A256 256 0 1 0 256 0a256 256 0 1 0 0 512zM175 175c-9.4 9.4-9.4 24.6 0 33.9l47 47-47 47c-9.4 9.4-9.4 24.6 0 33.9s24.6 9.4 33.9 0l47-47 47 47c9.4 9.4 24.6 9.4 33.9 0s9.4-24.6 0-33.9l-47-47 47-47c9.4-9.4 9.4-24.6 0-33.9s-24.6-9.4-33.9 0l-47 47-47-47c-9.4-9.4-24.6-9.4-33.9 0z"/>
</symbol>
<symbol id="clock" viewBox="0 0 512 512">
<path d="M464 256A208 208 0 1 1 48 256a208 208 0 1 1 416 0zM0 256a256 256 0 1 0 512 0A256 256 0 1 0 0 256zM232 120l0 136c0 8 4 15.5 10.7 20l96 64c11 7.4 25.9 4.4 33.3-6.7s4.4-25.9-6.7-33.3L280 243.2 280 120c0-13.3-10.7-24-24-24s-24 10.7-24 24z"/>
</symbol>
<symbol id="check" viewBox="0 0 448 512">
<path d="M441 103c9.4 9.4 9.4 24.6 0 33.9L177 401c-9.4 9.4-24.6 9.4-33.9 0L7 265c-9.4-9.4-9.4-24.6 0-33.9s24.6-9.4 33.9 0l119 119L407 103c9.4-9.4 24.6-9.4 33.9 0z"/>
</symbol>
<symbol id="trash-can" viewBox="0 0 448 512">
<path d="M170.5 51.6L151.5 80l145 0-19-28.4c-1.5-2.2-4-3.6-6.7-3.6l-93.7 0c-2.7 0-5.2 1.3-6.7 3.6zm147-26.6L354.2 80 368 80l48 0 8 0c13.3 0 24 10.7 24 24s-10.7 24-24 24l-8 0 0 304c0 44.2-35.8 80-80 80l-224 0c-44.2 0-80-35.8-80-80l0-304-8 0c-13.3 0-24-10.7-24-24S10.7 80 24 80l8 0 48 0 13.8 0 36.7-55.1C140.9 9.4 158.4 0 177.1 0l93.7 0c18.7 0 36.2 9.4 46.6 24.9zM80 128l0 304c0 17.7 14.3 32 32 32l224 0c17.7 0 32-14.3 32-32l0-304L80 128zm80 64l0 208c0 8.8-7.2 16-16 16s-16-7.2-16-16l0-208c0-8.8 7.2-16 16-16s16 7.2 16 16zm80 0l0 208c0 8.8-7.2 16-16 16s-16-7.2-16-16l0-208c0-8.8 7.2-16 16-16s16 7.2 16 16zm80 0l0 208c0 8.8-7.2 16-16 16s-16-7.2-16-16l0-208c0-8.8 7.2-16 16-16s16 7.2 16 16z"/>
</symbol>
<symbol id="image-user" viewBox="0 0 512 512">
<path d="M64 80c-8.8 0-16 7.2-16 16l0 320c0 8.8 7.2 16 16 16l384 0c8.8 0 16-7.2 16-16l0-320c0-8.8-7.2-16-16-16L64 80zM0 96C0 60.7 28.7 32 64 32l384 0c35.3 0 64 28.7 64 64l0 320c0 35.3-28.7 64-64 64L64 480c-35.3 0-64-28.7-64-64L0 96zm192 96a64 64 0 1 1 128 0 64 64 0 1 1 -128 0zM144 356.6c0-37.9 30.7-68.6 68.6-68.6l86.9 0c37.9 0 68.6 30.7 68.6 68.6c0 15.1-12.3 27.4-27.4 27.4l-169.1 0c-15.1 0-27.4-12.3-27.4-27.4z"/>
</symbol>
<symbol id="circle-play" viewBox="0 0 512 512">
<path d="M464 256A208 208 0 1 0 48 256a208 208 0 1 0 416 0zM0 256a256 256 0 1 1 512 0A256 256 0 1 1 0 256zM188.3 147.1c7.6-4.2 16.8-4.1 24.3 .5l144 88c7.1 4.4 11.5 12.1 11.5 20.5s-4.4 16.1-11.5 20.5l-144 88c-7.4 4.5-16.7 4.7-24.3 .5s-12.3-12.2-12.3-20.9l0-176c0-8.7 4.7-16.7 12.3-20.9z"/>
</symbol>
<symbol id="ellipsis" viewBox="0 0 448 512">
<path d="M432 256a48 48 0 1 1 -96 0 48 48 0 1 1 96 0zm-160 0a48 48 0 1 1 -96 0 48 48 0 1 1 96 0zM64 304a48 48 0 1 1 0-96 48 48 0 1 1 0 96z"/>
</symbol>
<symbol id="circle-plus" viewBox="0 0 512 512">
<path d="M256 48a208 208 0 1 1 0 416 208 208 0 1 1 0-416zm0 464A256 256 0 1 0 256 0a256 256 0 1 0 0 512zM232 344c0 13.3 10.7 24 24 24s24-10.7 24-24l0-64 64 0c13.3 0 24-10.7 24-24s-10.7-24-24-24l-64 0 0-64c0-13.3-10.7-24-24-24s-24 10.7-24 24l0 64-64 0c-13.3 0-24 10.7-24 24s10.7 24 24 24l64 0 0 64z"/>
</symbol>
<symbol id="square" viewBox="0 0 448 512">
<path d="M384 80c8.8 0 16 7.2 16 16l0 320c0 8.8-7.2 16-16 16L64 432c-8.8 0-16-7.2-16-16L48 96c0-8.8 7.2-16 16-16l320 0zM64 32C28.7 32 0 60.7 0 96L0 416c0 35.3 28.7 64 64 64l320 0c35.3 0 64-28.7 64-64l0-320c0-35.3-28.7-64-64-64L64 32z"/>
</symbol>
<symbol id="file-lines" viewBox="0 0 384 512">
<path d="M64 464c-8.8 0-16-7.2-16-16L48 64c0-8.8 7.2-16 16-16l160 0 0 80c0 17.7 14.3 32 32 32l80 0 0 288c0 8.8-7.2 16-16 16L64 464zM64 0C28.7 0 0 28.7 0 64L0 448c0 35.3 28.7 64 64 64l256 0c35.3 0 64-28.7 64-64l0-293.5c0-17-6.7-33.3-18.7-45.3L274.7 18.7C262.7 6.7 246.5 0 229.5 0L64 0zm56 256c-13.3 0-24 10.7-24 24s10.7 24 24 24l144 0c13.3 0 24-10.7 24-24s-10.7-24-24-24l-144 0zm0 96c-13.3 0-24 10.7-24 24s10.7 24 24 24l144 0c13.3 0 24-10.7 24-24s-10.7-24-24-24l-144 0z"/>
</symbol>
<symbol id="square-check" viewBox="0 0 448 512">
<path d="M64 80c-8.8 0-16 7.2-16 16l0 320c0 8.8 7.2 16 16 16l320 0c8.8 0 16-7.2 16-16l0-320c0-8.8-7.2-16-16-16L64 80zM0 96C0 60.7 28.7 32 64 32l320 0c35.3 0 64 28.7 64 64l0 320c0 35.3-28.7 64-64 64L64 480c-35.3 0-64-28.7-64-64L0 96zM337 209L209 337c-9.4 9.4-24.6 9.4-33.9 0l-64-64c-9.4-9.4-9.4-24.6 0-33.9s24.6-9.4 33.9 0l47 47L303 175c9.4-9.4 24.6-9.4 33.9 0s9.4 24.6 0 33.9z"/>
</symbol>
<symbol id="copy" viewBox="0 0 448 512">
<path d="M384 336l-192 0c-8.8 0-16-7.2-16-16l0-256c0-8.8 7.2-16 16-16l140.1 0L400 115.9 400 320c0 8.8-7.2 16-16 16zM192 384l192 0c35.3 0 64-28.7 64-64l0-204.1c0-12.7-5.1-24.9-14.1-33.9L366.1 14.1c-9-9-21.2-14.1-33.9-14.1L192 0c-35.3 0-64 28.7-64 64l0 256c0 35.3 28.7 64 64 64zM64 128c-35.3 0-64 28.7-64 64L0 448c0 35.3 28.7 64 64 64l192 0c35.3 0 64-28.7 64-64l0-32-48 0 0 32c0 8.8-7.2 16-16 16L64 464c-8.8 0-16-7.2-16-16l0-256c0-8.8 7.2-16 16-16l32 0 0-48-32 0z"/>
</symbol>
<symbol id="file-contract" viewBox="0 0 384 512">
<path d="M48 448L48 64c0-8.8 7.2-16 16-16l160 0 0 80c0 17.7 14.3 32 32 32l80 0 0 288c0 8.8-7.2 16-16 16L64 464c-8.8 0-16-7.2-16-16zM64 0C28.7 0 0 28.7 0 64L0 448c0 35.3 28.7 64 64 64l256 0c35.3 0 64-28.7 64-64l0-293.5c0-17-6.7-33.3-18.7-45.3L274.7 18.7C262.7 6.7 246.5 0 229.5 0L64 0zM96 96c-8.8 0-16 7.2-16 16s7.2 16 16 16l80 0c8.8 0 16-7.2 16-16s-7.2-16-16-16L96 96zm0 64c-8.8 0-16 7.2-16 16s7.2 16 16 16l80 0c8.8 0 16-7.2 16-16s-7.2-16-16-16l-80 0zm54.2 221.8L160 349l16.7 55.6c1.9 6.3 7.4 10.8 13.9 11.3s12.8-2.9 15.7-8.8l10.6-21.3c.6-1.2 1.8-1.9 3.1-1.9s2.5 .7 3.1 1.9l10.6 21.3c2.7 5.4 8.3 8.8 14.3 8.8l40 0c8.8 0 16-7.2 16-16s-7.2-16-16-16l-30.1 0-6.2-12.4c-6-12-18.3-19.6-31.7-19.6c-8.6 0-16.8 3.1-23.1 8.6l-11.3-37.5C182.2 311.7 171.8 304 160 304s-22.2 7.7-25.6 19.1l-14.9 49.5c-2 6.8-8.3 11.4-15.3 11.4L96 384c-8.8 0-16 7.2-16 16s7.2 16 16 16l8.2 0c21.2 0 39.9-13.9 46-34.2z"/>
</symbol>
<symbol id="plus" viewBox="0 0 448 512">
<path d="M248 72c0-13.3-10.7-24-24-24s-24 10.7-24 24l0 160L40 232c-13.3 0-24 10.7-24 24s10.7 24 24 24l160 0 0 160c0 13.3 10.7 24 24 24s24-10.7 24-24l0-160 160 0c13.3 0 24-10.7 24-24s-10.7-24-24-24l-160 0 0-160z"/>
</symbol>
<symbol id="calendar-days" viewBox="0 0 448 512">
<path d="M152 24c0-13.3-10.7-24-24-24s-24 10.7-24 24l0 40L64 64C28.7 64 0 92.7 0 128l0 16 0 48L0 448c0 35.3 28.7 64 64 64l320 0c35.3 0 64-28.7 64-64l0-256 0-48 0-16c0-35.3-28.7-64-64-64l-40 0 0-40c0-13.3-10.7-24-24-24s-24 10.7-24 24l0 40L152 64l0-40zM48 192l80 0 0 56-80 0 0-56zm0 104l80 0 0 64-80 0 0-64zm128 0l96 0 0 64-96 0 0-64zm144 0l80 0 0 64-80 0 0-64zm80-48l-80 0 0-56 80 0 0 56zm0 160l0 40c0 8.8-7.2 16-16 16l-64 0 0-56 80 0zm-128 0l0 56-96 0 0-56 96 0zm-144 0l0 56-64 0c-8.8 0-16-7.2-16-16l0-40 80 0zM272 248l-96 0 0-56 96 0 0 56z"/>
</symbol>
<symbol id="anchor" viewBox="0 0 576 512">
<path d="M320 80a32 32 0 1 1 -64 0 32 32 0 1 1 64 0zM288 0c-44.2 0-80 35.8-80 80c0 35.9 23.7 66.3 56.3 76.4c-.2 1.2-.3 2.4-.3 3.6l0 32-48 0c-13.3 0-24 10.7-24 24s10.7 24 24 24l48 0 0 224-24 0c-73.7 0-133.7-58.6-135.9-131.8l16.3 14c10.1 8.6 25.2 7.5 33.8-2.6s7.5-25.2-2.6-33.8l-56-48c-9-7.7-22.3-7.7-31.2 0l-56 48c-10.1 8.6-11.2 23.8-2.6 33.8s23.8 11.2 33.8 2.6L56 332.1C58.2 431.8 139.8 512 240 512l48 0 48 0c100.2 0 181.8-80.2 184-179.9l16.4 14.1c10.1 8.6 25.2 7.5 33.8-2.6s7.5-25.2-2.6-33.8l-56-48c-9-7.7-22.2-7.7-31.2 0l-56 48c-10.1 8.6-11.2 23.8-2.6 33.8s23.8 11.2 33.8 2.6l16.3-14C469.7 405.4 409.7 464 336 464l-24 0 0-224 48 0c13.3 0 24-10.7 24-24s-10.7-24-24-24l-48 0 0-32c0-1.2-.1-2.4-.3-3.6C344.3 146.3 368 115.9 368 80c0-44.2-35.8-80-80-80z"/>
</symbol>
</svg>