<?xml version="1.0" encoding="UTF-8"?>
<svg xmlns="http://www.w3.org/2000/svg" style="display: none;">
<symbol id="file-lines" viewBox="0 0 384 512">
<path d="M64 464c-8.8 0-16-7.2-16-16V64c0-8.8 7.2-16 16-16H224v80c0 17.7 14.3 32 32 32h80V448c0 8.8-7.2 16-16 16H64zM64 0C28.7 0 0 28.7 0 64V448c0 35.3 28.7 64 64 64H320c35.3 0 64-28.7 64-64V154.5c0-17-6.7-33.3-18.7-45.3L274.7 18.7C262.7 6.7 246.5 0 229.5 0H64zm56 256c-13.3 0-24 10.7-24 24s10.7 24 24 24H264c13.3 0 24-10.7 24-24s-10.7-24-24-24H120zm0 96c-13.3 0-24 10.7-24 24s10.7 24 24 24H264c13.3 0 24-10.7 24-24s-10.7-24-24-24H120z"/>
</symbol>
<symbol id="calendar-days" viewBox="0 0 448 512">
<path d="M152 24c0-13.3-10.7-24-24-24s-24 10.7-24 24V64H64C28.7 64 0 92.7 0 128v16 48V448c0 35.3 28.7 64 64 64H384c35.3 0 64-28.7 64-64V192 144 128c0-35.3-28.7-64-64-64H344V24c0-13.3-10.7-24-24-24s-24 10.7-24 24V64H152V24zM48 192h80v56H48V192zm0 104h80v64H48V296zm128 0h96v64H176V296zm144 0h80v64H320V296zm80-48H320V192h80v56zm0 160v40c0 8.8-7.2 16-16 16H320V408h80zm-128 0v56H176V408h96zm-144 0v56H64c-8.8 0-16-7.2-16-16V408h80zM272 248H176V192h96v56z"/>
</symbol>
<symbol id="circle-plus" viewBox="0 0 512 512">
<path d="M256 48a208 208 0 1 1 0 416 208 208 0 1 1 0-416zm0 464A256 256 0 1 0 256 0a256 256 0 1 0 0 512zM232 344c0 13.3 10.7 24 24 24s24-10.7 24-24V280h64c13.3 0 24-10.7 24-24s-10.7-24-24-24H280V168c0-13.3-10.7-24-24-24s-24 10.7-24 24v64H168c-13.3 0-24 10.7-24 24s10.7 24 24 24h64v64z"/>
</symbol>
<symbol id="trash-can" viewBox="0 0 448 512">
<path d="M170.5 51.6L151.5 80h145l-19-28.4c-1.5-2.2-4-3.6-6.7-3.6H177.1c-2.7 0-5.2 1.3-6.7 3.6zm147-26.6L354.2 80H368h48 8c13.3 0 24 10.7 24 24s-10.7 24-24 24h-8V432c0 44.2-35.8 80-80 80H112c-44.2 0-80-35.8-80-80V128H24c-13.3 0-24-10.7-24-24S10.7 80 24 80h8H80 93.8l36.7-55.1C140.9 9.4 158.4 0 177.1 0h93.7c18.7 0 36.2 9.4 46.6 24.9zM80 128V432c0 17.7 14.3 32 32 32H336c17.7 0 32-14.3 32-32V128H80zm80 64V400c0 8.8-7.2 16-16 16s-16-7.2-16-16V192c0-8.8 7.2-16 16-16s16 7.2 16 16zm80 0V400c0 8.8-7.2 16-16 16s-16-7.2-16-16V192c0-8.8 7.2-16 16-16s16 7.2 16 16zm80 0V400c0 8.8-7.2 16-16 16s-16-7.2-16-16V192c0-8.8 7.2-16 16-16s16 7.2 16 16z"/>
</symbol>
<symbol id="circle-play" viewBox="0 0 512 512">
<path d="M464 256A208 208 0 1 0 48 256a208 208 0 1 0 416 0zM0 256a256 256 0 1 1 512 0A256 256 0 1 1 0 256zM188.3 147.1c7.6-4.2 16.8-4.1 24.3 .5l144 88c7.1 4.4 11.5 12.1 11.5 20.5s-4.4 16.1-11.5 20.5l-144 88c-7.4 4.5-16.7 4.7-24.3 .5s-12.3-12.2-12.3-20.9V168c0-8.7 4.7-16.7 12.3-20.9z"/>
</symbol>
<symbol id="anchor" viewBox="0 0 576 512">
<path d="M320 80a32 32 0 1 1 -64 0 32 32 0 1 1 64 0zM288 0c-44.2 0-80 35.8-80 80c0 35.9 23.7 66.3 56.3 76.4c-.2 1.2-.3 2.4-.3 3.6v32H216c-13.3 0-24 10.7-24 24s10.7 24 24 24h48V464H240c-73.7 0-133.7-58.6-135.9-131.8l16.3 14c10.1 8.6 25.2 7.5 33.8-2.6s7.5-25.2-2.6-33.8l-56-48c-9-7.7-22.3-7.7-31.2 0l-56 48c-10.1 8.6-11.2 23.8-2.6 33.8s23.8 11.2 33.8 2.6L56 332.1C58.2 431.8 139.8 512 240 512h48 48c100.2 0 181.8-80.2 184-179.9l16.4 14.1c10.1 8.6 25.2 7.5 33.8-2.6s7.5-25.2-2.6-33.8l-56-48c-9-7.7-22.2-7.7-31.2 0l-56 48c-10.1 8.6-11.2 23.8-2.6 33.8s23.8 11.2 33.8 2.6l16.3-14C469.7 405.4 409.7 464 336 464H312V240h48c13.3 0 24-10.7 24-24s-10.7-24-24-24H312V160c0-1.2-.1-2.4-.3-3.6C344.3 146.3 368 115.9 368 80c0-44.2-35.8-80-80-80z"/>
</symbol>
<symbol id="check" viewBox="0 0 448 512">
<path d="M441 103c9.4 9.4 9.4 24.6 0 33.9L177 401c-9.4 9.4-24.6 9.4-33.9 0L7 265c-9.4-9.4-9.4-24.6 0-33.9s24.6-9.4 33.9 0l119 119L407 103c9.4-9.4 24.6-9.4 33.9 0z"/>
</symbol>
<symbol id="circle-xmark" viewBox="0 0 512 512">
<path d="M256 48a208 208 0 1 1 0 416 208 208 0 1 1 0-416zm0 464A256 256 0 1 0 256 0a256 256 0 1 0 0 512zM175 175c-9.4 9.4-9.4 24.6 0 33.9l47 47-47 47c-9.4 9.4-9.4 24.6 0 33.9s24.6 9.4 33.9 0l47-47 47 47c9.4 9.4 24.6 9.4 33.9 0s9.4-24.6 0-33.9l-47-47 47-47c9.4-9.4 9.4-24.6 0-33.9s-24.6-9.4-33.9 0l-47 47-47-47c-9.4-9.4-24.6-9.4-33.9 0z"/>
</symbol>
<symbol id="square-check" viewBox="0 0 448 512">
<path d="M64 80c-8.8 0-16 7.2-16 16V416c0 8.8 7.2 16 16 16H384c8.8 0 16-7.2 16-16V96c0-8.8-7.2-16-16-16H64zM0 96C0 60.7 28.7 32 64 32H384c35.3 0 64 28.7 64 64V416c0 35.3-28.7 64-64 64H64c-35.3 0-64-28.7-64-64V96zM337 209L209 337c-9.4 9.4-24.6 9.4-33.9 0l-64-64c-9.4-9.4-9.4-24.6 0-33.9s24.6-9.4 33.9 0l47 47L303 175c9.4-9.4 24.6-9.4 33.9 0s9.4 24.6 0 33.9z"/>
</symbol>
<symbol id="plus" viewBox="0 0 448 512">
<path d="M248 72c0-13.3-10.7-24-24-24s-24 10.7-24 24V232H40c-13.3 0-24 10.7-24 24s10.7 24 24 24H200V440c0 13.3 10.7 24 24 24s24-10.7 24-24V280H408c13.3 0 24-10.7 24-24s-10.7-24-24-24H248V72z"/>
</symbol>
<symbol id="square" viewBox="0 0 448 512">
<path d="M384 80c8.8 0 16 7.2 16 16V416c0 8.8-7.2 16-16 16H64c-8.8 0-16-7.2-16-16V96c0-8.8 7.2-16 16-16H384zM64 32C28.7 32 0 60.7 0 96V416c0 35.3 28.7 64 64 64H384c35.3 0 64-28.7 64-64V96c0-35.3-28.7-64-64-64H64z"/>
</symbol>
<symbol id="copy" viewBox="0 0 448 512">
<path d="M384 336H192c-8.8 0-16-7.2-16-16V64c0-8.8 7.2-16 16-16l140.1 0L400 115.9V320c0 8.8-7.2 16-16 16zM192 384H384c35.3 0 64-28.7 64-64V115.9c0-12.7-5.1-24.9-14.1-33.9L366.1 14.1c-9-9-21.2-14.1-33.9-14.1H192c-35.3 0-64 28.7-64 64V320c0 35.3 28.7 64 64 64zM64 128c-35.3 0-64 28.7-64 64V448c0 35.3 28.7 64 64 64H256c35.3 0 64-28.7 64-64V416H272v32c0 8.8-7.2 16-16 16H64c-8.8 0-16-7.2-16-16V192c0-8.8 7.2-16 16-16H96V128H64z"/>
</symbol>
<symbol id="clock" viewBox="0 0 512 512">
<path d="M464 256A208 208 0 1 1 48 256a208 208 0 1 1 416 0zM0 256a256 256 0 1 0 512 0A256 256 0 1 0 0 256zM232 120V256c0 8 4 15.5 10.7 20l96 64c11 7.4 25.9 4.4 33.3-6.7s4.4-25.9-6.7-33.3L280 243.2V120c0-13.3-10.7-24-24-24s-24 10.7-24 24z"/>
</symbol>
</svg>