<?xml version="1.0" encoding="UTF-8"?>
<svg xmlns="http://www.w3.org/2000/svg" style="display: none;">
<symbol id="user-tie" viewBox="0 0 448 512">
<path d="M96 128a128 128 0 1 0 256 0A128 128 0 1 0 96 128zm94.5 200.2l18.6 31L175.8 483.1l-36-146.9c-2-8.1-9.8-13.4-17.9-11.3C51.9 342.4 0 405.8 0 481.3c0 17 13.8 30.7 30.7 30.7H162.5c0 0 0 0 .1 0H168 280h5.5c0 0 0 0 .1 0H417.3c17 0 30.7-13.8 30.7-30.7c0-75.5-51.9-138.9-121.9-156.4c-8.1-2-15.9 3.3-17.9 11.3l-36 146.9L238.9 359.2l18.6-31c6.4-10.7-1.3-24.2-13.7-24.2H224 204.3c-12.4 0-20.1 13.6-13.7 24.2z"/>
</symbol>
<symbol id="plus" viewBox="0 0 448 512">
<path d="M256 80c0-17.7-14.3-32-32-32s-32 14.3-32 32V224H48c-17.7 0-32 14.3-32 32s14.3 32 32 32H192V432c0 17.7 14.3 32 32 32s32-14.3 32-32V288H400c17.7 0 32-14.3 32-32s-14.3-32-32-32H256V80z"/>
</symbol>
<symbol id="floppy-disk" viewBox="0 0 448 512">
<path d="M64 32C28.7 32 0 60.7 0 96V416c0 35.3 28.7 64 64 64H384c35.3 0 64-28.7 64-64V173.3c0-17-6.7-33.3-18.7-45.3L352 50.7C340 38.7 323.7 32 306.7 32H64zm0 96c0-17.7 14.3-32 32-32H288c17.7 0 32 14.3 32 32v64c0 17.7-14.3 32-32 32H96c-17.7 0-32-14.3-32-32V128zM224 288a64 64 0 1 1 0 128 64 64 0 1 1 0-128z"/>
</symbol>
<symbol id="download" viewBox="0 0 512 512">
<path d="M288 32c0-17.7-14.3-32-32-32s-32 14.3-32 32V274.7l-73.4-73.4c-12.5-12.5-32.8-12.5-45.3 0s-12.5 32.8 0 45.3l128 128c12.5 12.5 32.8 12.5 45.3 0l128-128c12.5-12.5 12.5-32.8 0-45.3s-32.8-12.5-45.3 0L288 274.7V32zM64 352c-35.3 0-64 28.7-64 64v32c0 35.3 28.7 64 64 64H448c35.3 0 64-28.7 64-64V416c0-35.3-28.7-64-64-64H346.5l-45.3 45.3c-25 25-65.5 25-90.5 0L165.5 352H64zm368 56a24 24 0 1 1 0 48 24 24 0 1 1 0-48z"/>
</symbol>
<symbol id="camera" viewBox="0 0 512 512">
<path d="M149.1 64.8L138.7 96H64C28.7 96 0 124.7 0 160V416c0 35.3 28.7 64 64 64H448c35.3 0 64-28.7 64-64V160c0-35.3-28.7-64-64-64H373.3L362.9 64.8C356.4 45.2 338.1 32 317.4 32H194.6c-20.7 0-39 13.2-45.5 32.8zM256 192a96 96 0 1 1 0 192 96 96 0 1 1 0-192z"/>
</symbol>
<symbol id="pen-to-square" viewBox="0 0 512 512">
<path d="M471.6 21.7c-21.9-21.9-57.3-21.9-79.2 0L362.3 51.7l97.9 97.9 30.1-30.1c21.9-21.9 21.9-57.3 0-79.2L471.6 21.7zm-299.2 220c-6.1 6.1-10.8 13.6-13.5 21.9l-29.6 88.8c-2.9 8.6-.6 18.1 5.8 24.6s15.9 8.7 24.6 5.8l88.8-29.6c8.2-2.7 15.7-7.4 21.9-13.5L437.7 172.3 339.7 74.3 172.4 241.7zM96 64C43 64 0 107 0 160V416c0 53 43 96 96 96H352c53 0 96-43 96-96V320c0-17.7-14.3-32-32-32s-32 14.3-32 32v96c0 17.7-14.3 32-32 32H96c-17.7 0-32-14.3-32-32V160c0-17.7 14.3-32 32-32h96c17.7 0 32-14.3 32-32s-14.3-32-32-32H96z"/>
</symbol>
<symbol id="map-location-dot" viewBox="0 0 576 512">
<path d="M408 120c0 54.6-73.1 151.9-105.2 192c-7.7 9.6-22 9.6-29.6 0C241.1 271.9 168 174.6 168 120C168 53.7 221.7 0 288 0s120 53.7 120 120zm8 80.4c3.5-6.9 6.7-13.8 9.6-20.6c.5-1.2 1-2.5 1.5-3.7l116-46.4C558.9 123.4 576 135 576 152V422.8c0 9.8-6 18.6-15.1 22.3L416 503V200.4zM137.6 138.3c2.4 14.1 7.2 28.3 12.8 41.5c2.9 6.8 6.1 13.7 9.6 20.6V451.8L32.9 502.7C17.1 509 0 497.4 0 480.4V209.6c0-9.8 6-18.6 15.1-22.3l122.6-49zM327.8 332c13.9-17.4 35.7-45.7 56.2-77V504.3L192 449.4V255c20.5 31.3 42.3 59.6 56.2 77c20.5 25.6 59.1 25.6 79.6 0zM288 152a40 40 0 1 0 0-80 40 40 0 1 0 0 80z"/>
</symbol>
<symbol id="clock" viewBox="0 0 512 512">
<path d="M256 0a256 256 0 1 1 0 512A256 256 0 1 1 256 0zM232 120V256c0 8 4 15.5 10.7 20l96 64c11 7.4 25.9 4.4 33.3-6.7s4.4-25.9-6.7-33.3L280 243.2V120c0-13.3-10.7-24-24-24s-24 10.7-24 24z"/>
</symbol>
<symbol id="files" viewBox="0 0 448 512">
<path d="M320 0H160C124.7 0 96 28.7 96 64V352c0 35.3 28.7 64 64 64H384c35.3 0 64-28.7 64-64V128H352c-17.7 0-32-14.3-32-32V0zM448 96L416 64 384 32 352 0V45.3 64 96h32 18.7H448zM48 120c0-13.3-10.7-24-24-24S0 106.7 0 120V376c0 75.1 60.9 136 136 136H328c13.3 0 24-10.7 24-24s-10.7-24-24-24H136c-48.6 0-88-39.4-88-88V120z"/>
</symbol>
<symbol id="martini-glass-citrus" viewBox="0 0 576 512">
<path d="M432 240c53 0 96-43 96-96s-43-96-96-96c-35.5 0-66.6 19.3-83.2 48H296.2C316 40.1 369.3 0 432 0c79.5 0 144 64.5 144 144s-64.5 144-144 144c-27.7 0-53.5-7.8-75.5-21.3l35.4-35.4c12.2 5.6 25.8 8.7 40.1 8.7zM1.8 142.8C5.5 133.8 14.3 128 24 128H392c9.7 0 18.5 5.8 22.2 14.8s1.7 19.3-5.2 26.2l-177 177V464h64c13.3 0 24 10.7 24 24s-10.7 24-24 24H208 120c-13.3 0-24-10.7-24-24s10.7-24 24-24h64V345.9L7 169c-6.9-6.9-8.9-17.2-5.2-26.2z"/>
</symbol>
<symbol id="square" viewBox="0 0 448 512">
<path d="M0 96C0 60.7 28.7 32 64 32H384c35.3 0 64 28.7 64 64V416c0 35.3-28.7 64-64 64H64c-35.3 0-64-28.7-64-64V96z"/>
</symbol>
<symbol id="lock-open" viewBox="0 0 576 512">
<path d="M352 144c0-44.2 35.8-80 80-80s80 35.8 80 80v48c0 17.7 14.3 32 32 32s32-14.3 32-32V144C576 64.5 511.5 0 432 0S288 64.5 288 144v48H64c-35.3 0-64 28.7-64 64V448c0 35.3 28.7 64 64 64H384c35.3 0 64-28.7 64-64V256c0-35.3-28.7-64-64-64H352V144z"/>
</symbol>
<symbol id="anchor" viewBox="0 0 576 512">
<path d="M320 96a32 32 0 1 1 -64 0 32 32 0 1 1 64 0zm21.1 80C367 158.8 384 129.4 384 96c0-53-43-96-96-96s-96 43-96 96c0 33.4 17 62.8 42.9 80H224c-17.7 0-32 14.3-32 32s14.3 32 32 32h32V448H208c-53 0-96-43-96-96v-6.1l7 7c9.4 9.4 24.6 9.4 33.9 0s9.4-24.6 0-33.9L97 263c-9.4-9.4-24.6-9.4-33.9 0L7 319c-9.4 9.4-9.4 24.6 0 33.9s24.6 9.4 33.9 0l7-7V352c0 88.4 71.6 160 160 160h80 80c88.4 0 160-71.6 160-160v-6.1l7 7c9.4 9.4 24.6 9.4 33.9 0s9.4-24.6 0-33.9l-56-56c-9.4-9.4-24.6-9.4-33.9 0l-56 56c-9.4 9.4-9.4 24.6 0 33.9s24.6 9.4 33.9 0l7-7V352c0 53-43 96-96 96H320V240h32c17.7 0 32-14.3 32-32s-14.3-32-32-32H341.1z"/>
</symbol>
<symbol id="thumbs-up" viewBox="0 0 512 512">
<path d="M313.4 32.9c26 5.2 42.9 30.5 37.7 56.5l-2.3 11.4c-5.3 26.7-15.1 52.1-28.8 75.2H464c26.5 0 48 21.5 48 48c0 18.5-10.5 34.6-25.9 42.6C497 275.4 504 288.9 504 304c0 23.4-16.8 42.9-38.9 47.1c4.4 7.3 6.9 15.8 6.9 24.9c0 21.3-13.9 39.4-33.1 45.6c.7 3.3 1.1 6.8 1.1 10.4c0 26.5-21.5 48-48 48H294.5c-19 0-37.5-5.6-53.3-16.1l-38.5-25.7C176 420.4 160 390.4 160 358.3V320 272 247.1c0-29.2 13.3-56.7 36-75l7.4-5.9c26.5-21.2 44.6-51 51.2-84.2l2.3-11.4c5.2-26 30.5-42.9 56.5-37.7zM32 192H96c17.7 0 32 14.3 32 32V448c0 17.7-14.3 32-32 32H32c-17.7 0-32-14.3-32-32V224c0-17.7 14.3-32 32-32z"/>
</symbol>
<symbol id="angle-down" viewBox="0 0 448 512">
<path d="M201.4 342.6c12.5 12.5 32.8 12.5 45.3 0l160-160c12.5-12.5 12.5-32.8 0-45.3s-32.8-12.5-45.3 0L224 274.7 86.6 137.4c-12.5-12.5-32.8-12.5-45.3 0s-12.5 32.8 0 45.3l160 160z"/>
</symbol>
<symbol id="dollar-sign" viewBox="0 0 320 512">
<path d="M160 0c17.7 0 32 14.3 32 32V67.7c1.6 .2 3.1 .4 4.7 .7c.4 .1 .7 .1 1.1 .2l48 8.8c17.4 3.2 28.9 19.9 25.7 37.2s-19.9 28.9-37.2 25.7l-47.5-8.7c-31.3-4.6-58.9-1.5-78.3 6.2s-27.2 18.3-29 28.1c-2 10.7-.5 16.7 1.2 20.4c1.8 3.9 5.5 8.3 12.8 13.2c16.3 10.7 41.3 17.7 73.7 26.3l2.9 .8c28.6 7.6 63.6 16.8 89.6 33.8c14.2 9.3 27.6 21.9 35.9 39.5c8.5 17.9 10.3 37.9 6.4 59.2c-6.9 38-33.1 63.4-65.6 76.7c-13.7 5.6-28.6 9.2-44.4 11V480c0 17.7-14.3 32-32 32s-32-14.3-32-32V445.1c-.4-.1-.9-.1-1.3-.2l-.2 0 0 0c-24.4-3.8-64.5-14.3-91.5-26.3c-16.1-7.2-23.4-26.1-16.2-42.2s26.1-23.4 42.2-16.2c20.9 9.3 55.3 18.5 75.2 21.6c31.9 4.7 58.2 2 76-5.3c16.9-6.9 24.6-16.9 26.8-28.9c1.9-10.6 .4-16.7-1.3-20.4c-1.9-4-5.6-8.4-13-13.3c-16.4-10.7-41.5-17.7-74-26.3l-2.8-.7 0 0C119.4 279.3 84.4 270 58.4 253c-14.2-9.3-27.5-22-35.8-39.6c-8.4-17.9-10.1-37.9-6.1-59.2C23.7 116 52.3 91.2 84.8 78.3c13.3-5.3 27.9-8.9 43.2-11V32c0-17.7 14.3-32 32-32z"/>
</symbol>
<symbol id="credit-card" viewBox="0 0 576 512">
<path d="M64 32C28.7 32 0 60.7 0 96v32H576V96c0-35.3-28.7-64-64-64H64zM576 224H0V416c0 35.3 28.7 64 64 64H512c35.3 0 64-28.7 64-64V224zM112 352h64c8.8 0 16 7.2 16 16s-7.2 16-16 16H112c-8.8 0-16-7.2-16-16s7.2-16 16-16zm112 16c0-8.8 7.2-16 16-16H368c8.8 0 16 7.2 16 16s-7.2 16-16 16H240c-8.8 0-16-7.2-16-16z"/>
</symbol>
<symbol id="gas-pump" viewBox="0 0 512 512">
<path d="M32 64C32 28.7 60.7 0 96 0H256c35.3 0 64 28.7 64 64V256h8c48.6 0 88 39.4 88 88v32c0 13.3 10.7 24 24 24s24-10.7 24-24V222c-27.6-7.1-48-32.2-48-62V96L384 64c-8.8-8.8-8.8-23.2 0-32s23.2-8.8 32 0l77.3 77.3c12 12 18.7 28.3 18.7 45.3V168v24 32V376c0 39.8-32.2 72-72 72s-72-32.2-72-72V344c0-22.1-17.9-40-40-40h-8V448c17.7 0 32 14.3 32 32s-14.3 32-32 32H32c-17.7 0-32-14.3-32-32s14.3-32 32-32V64zM96 80v96c0 8.8 7.2 16 16 16H240c8.8 0 16-7.2 16-16V80c0-8.8-7.2-16-16-16H112c-8.8 0-16 7.2-16 16z"/>
</symbol>
<symbol id="earth-europe" viewBox="0 0 512 512">
<path d="M266.3 48.3L232.5 73.6c-5.4 4-8.5 10.4-8.5 17.1v9.1c0 6.8 5.5 12.3 12.3 12.3c2.4 0 4.8-.7 6.8-2.1l41.8-27.9c2-1.3 4.4-2.1 6.8-2.1h1c6.2 0 11.3 5.1 11.3 11.3c0 3-1.2 5.9-3.3 8l-19.9 19.9c-5.8 5.8-12.9 10.2-20.7 12.8l-26.5 8.8c-5.8 1.9-9.6 7.3-9.6 13.4c0 3.7-1.5 7.3-4.1 10l-17.9 17.9c-6.4 6.4-9.9 15-9.9 24v4.3c0 16.4 13.6 29.7 29.9 29.7c11 0 21.2-6.2 26.1-16l4-8.1c2.4-4.8 7.4-7.9 12.8-7.9c4.5 0 8.7 2.1 11.4 5.7l16.3 21.7c2.1 2.9 5.5 4.5 9.1 4.5c8.4 0 13.9-8.9 10.1-16.4l-1.1-2.3c-3.5-7 0-15.5 7.5-18l21.2-7.1c7.6-2.5 12.7-9.6 12.7-17.6c0-10.3 8.3-18.6 18.6-18.6H400c8.8 0 16 7.2 16 16s-7.2 16-16 16H379.3c-7.2 0-14.2 2.9-19.3 8l-4.7 4.7c-2.1 2.1-3.3 5-3.3 8c0 6.2 5.1 11.3 11.3 11.3h11.3c6 0 11.8 2.4 16 6.6l6.5 6.5c1.8 1.8 2.8 4.3 2.8 6.8s-1 5-2.8 6.8l-7.5 7.5C386 262 384 266.9 384 272s2 10 5.7 13.7L408 304c10.2 10.2 24.1 16 38.6 16H454c6.5-20.2 10-41.7 10-64c0-111.4-87.6-202.4-197.7-207.7zm172 307.9c-3.7-2.6-8.2-4.1-13-4.1c-6 0-11.8-2.4-16-6.6L396 332c-7.7-7.7-18-12-28.9-12c-9.7 0-19.2-3.5-26.6-9.8L314 287.4c-11.6-9.9-26.4-15.4-41.7-15.4H251.4c-12.6 0-25 3.7-35.5 10.7L188.5 301c-17.8 11.9-28.5 31.9-28.5 53.3v3.2c0 17 6.7 33.3 18.7 45.3l16 16c8.5 8.5 20 13.3 32 13.3H248c13.3 0 24 10.7 24 24c0 2.5 .4 5 1.1 7.3c71.3-5.8 132.5-47.6 165.2-107.2zM0 256a256 256 0 1 1 512 0A256 256 0 1 1 0 256zM187.3 100.7c-6.2-6.2-16.4-6.2-22.6 0l-32 32c-6.2 6.2-6.2 16.4 0 22.6s16.4 6.2 22.6 0l32-32c6.2-6.2 6.2-16.4 0-22.6z"/>
</symbol>
<symbol id="circle-plus" viewBox="0 0 512 512">
<path d="M256 512A256 256 0 1 0 256 0a256 256 0 1 0 0 512zM232 344V280H168c-13.3 0-24-10.7-24-24s10.7-24 24-24h64V168c0-13.3 10.7-24 24-24s24 10.7 24 24v64h64c13.3 0 24 10.7 24 24s-10.7 24-24 24H280v64c0 13.3-10.7 24-24 24s-24-10.7-24-24z"/>
</symbol>
<symbol id="square-o" viewBox="0 0 448 512">
<path d="M64 32C28.7 32 0 60.7 0 96V416c0 35.3 28.7 64 64 64H384c35.3 0 64-28.7 64-64V96c0-35.3-28.7-64-64-64H64zm80 224a80 80 0 1 0 160 0 80 80 0 1 0 -160 0zm80 128a128 128 0 1 1 0-256 128 128 0 1 1 0 256z"/>
</symbol>
<symbol id="minus" viewBox="0 0 448 512">
<path d="M432 256c0 17.7-14.3 32-32 32L48 288c-17.7 0-32-14.3-32-32s14.3-32 32-32l352 0c17.7 0 32 14.3 32 32z"/>
</symbol>
<symbol id="utensils" viewBox="0 0 448 512">
<path d="M416 0C400 0 288 32 288 176V288c0 35.3 28.7 64 64 64h32V480c0 17.7 14.3 32 32 32s32-14.3 32-32V352 240 32c0-17.7-14.3-32-32-32zM64 16C64 7.8 57.9 1 49.7 .1S34.2 4.6 32.4 12.5L2.1 148.8C.7 155.1 0 161.5 0 167.9c0 45.9 35.1 83.6 80 87.7V480c0 17.7 14.3 32 32 32s32-14.3 32-32V255.6c44.9-4.1 80-41.8 80-87.7c0-6.4-.7-12.8-2.1-19.1L191.6 12.5c-1.8-8-9.3-13.3-17.4-12.4S160 7.8 160 16V150.2c0 5.4-4.4 9.8-9.8 9.8c-5.1 0-9.3-3.9-9.8-9L127.9 14.6C127.2 6.3 120.3 0 112 0s-15.2 6.3-15.9 14.6L83.7 151c-.5 5.1-4.7 9-9.8 9c-5.4 0-9.8-4.4-9.8-9.8V16zm48.3 152l-.3 0-.3 0 .3-.7 .3 .7z"/>
</symbol>
<symbol id="magnifying-glass" viewBox="0 0 512 512">
<path d="M416 208c0 45.9-14.9 88.3-40 122.7L502.6 457.4c12.5 12.5 12.5 32.8 0 45.3s-32.8 12.5-45.3 0L330.7 376c-34.4 25.2-76.8 40-122.7 40C93.1 416 0 322.9 0 208S93.1 0 208 0S416 93.1 416 208zM208 352a144 144 0 1 0 0-288 144 144 0 1 0 0 288z"/>
</symbol>
<symbol id="chevron-down" viewBox="0 0 512 512">
<path d="M233.4 406.6c12.5 12.5 32.8 12.5 45.3 0l192-192c12.5-12.5 12.5-32.8 0-45.3s-32.8-12.5-45.3 0L256 338.7 86.6 169.4c-12.5-12.5-32.8-12.5-45.3 0s-12.5 32.8 0 45.3l192 192z"/>
</symbol>
<symbol id="bell" viewBox="0 0 448 512">
<path d="M224 0c-17.7 0-32 14.3-32 32V51.2C119 66 64 130.6 64 208v18.8c0 47-17.3 92.4-48.5 127.6l-7.4 8.3c-8.4 9.4-10.4 22.9-5.3 34.4S19.4 416 32 416H416c12.6 0 24-7.4 29.2-18.9s3.1-25-5.3-34.4l-7.4-8.3C401.3 319.2 384 273.9 384 226.8V208c0-77.4-55-142-128-156.8V32c0-17.7-14.3-32-32-32zm45.3 493.3c12-12 18.7-28.3 18.7-45.3H224 160c0 17 6.7 33.3 18.7 45.3s28.3 18.7 45.3 18.7s33.3-6.7 45.3-18.7z"/>
</symbol>
<symbol id="microchip-ai" viewBox="0 0 512 512">
<path d="M176 24c0-13.3-10.7-24-24-24s-24 10.7-24 24V64c-35.3 0-64 28.7-64 64H24c-13.3 0-24 10.7-24 24s10.7 24 24 24H64v56H24c-13.3 0-24 10.7-24 24s10.7 24 24 24H64v56H24c-13.3 0-24 10.7-24 24s10.7 24 24 24H64c0 35.3 28.7 64 64 64v40c0 13.3 10.7 24 24 24s24-10.7 24-24V448h56v40c0 13.3 10.7 24 24 24s24-10.7 24-24V448h56v40c0 13.3 10.7 24 24 24s24-10.7 24-24V448c35.3 0 64-28.7 64-64h40c13.3 0 24-10.7 24-24s-10.7-24-24-24H448V280h40c13.3 0 24-10.7 24-24s-10.7-24-24-24H448V176h40c13.3 0 24-10.7 24-24s-10.7-24-24-24H448c0-35.3-28.7-64-64-64V24c0-13.3-10.7-24-24-24s-24 10.7-24 24V64H280V24c0-13.3-10.7-24-24-24s-24 10.7-24 24V64H176V24zm32 152c6.4 0 12.1 3.8 14.7 9.6l42 96 14 32c3.5 8.1-.1 17.5-8.2 21.1s-17.5-.2-21.1-8.2L239.5 304H176.5l-9.8 22.4c-3.5 8.1-13 11.8-21.1 8.2s-11.8-13-8.2-21.1l14-32 42-96c2.5-5.8 8.3-9.6 14.7-9.6zm17.5 96L208 231.9 190.5 272h35.1zM336 176c8.8 0 16 7.2 16 16V320c0 8.8-7.2 16-16 16s-16-7.2-16-16V192c0-8.8 7.2-16 16-16z"/>
</symbol>
<symbol id="credit-card-front" viewBox="0 0 576 512">
<path d="M0 96C0 60.7 28.7 32 64 32H512c35.3 0 64 28.7 64 64V416c0 35.3-28.7 64-64 64H64c-35.3 0-64-28.7-64-64V96zM112 288c-8.8 0-16 7.2-16 16s7.2 16 16 16H464c8.8 0 16-7.2 16-16s-7.2-16-16-16H112zM96 368c0 8.8 7.2 16 16 16h64c8.8 0 16-7.2 16-16s-7.2-16-16-16H112c-8.8 0-16 7.2-16 16zm128 0c0 8.8 7.2 16 16 16H368c8.8 0 16-7.2 16-16s-7.2-16-16-16H240c-8.8 0-16 7.2-16 16zM408 96c-13.3 0-24 10.7-24 24v48c0 13.3 10.7 24 24 24h80c13.3 0 24-10.7 24-24V120c0-13.3-10.7-24-24-24H408z"/>
</symbol>
<symbol id="comments" viewBox="0 0 640 512">
<path d="M208 352c114.9 0 208-78.8 208-176S322.9 0 208 0S0 78.8 0 176c0 38.6 14.7 74.3 39.6 103.4c-3.5 9.4-8.7 17.7-14.2 24.7c-4.8 6.2-9.7 11-13.3 14.3c-1.8 1.6-3.3 2.9-4.3 3.7c-.5 .4-.9 .7-1.1 .8l-.2 .2 0 0 0 0C1 327.2-1.4 334.4 .8 340.9S9.1 352 16 352c21.8 0 43.8-5.6 62.1-12.5c9.2-3.5 17.8-7.4 25.3-11.4C134.1 343.3 169.8 352 208 352zM448 176c0 112.3-99.1 196.9-216.5 207C255.8 457.4 336.4 512 432 512c38.2 0 73.9-8.7 104.7-23.9c7.5 4 16 7.9 25.2 11.4c18.3 6.9 40.3 12.5 62.1 12.5c6.9 0 13.1-4.5 15.2-11.1c2.1-6.6-.2-13.8-5.8-17.9l0 0 0 0-.2-.2c-.2-.2-.6-.4-1.1-.8c-1-.8-2.5-2-4.3-3.7c-3.6-3.3-8.5-8.1-13.3-14.3c-5.5-7-10.7-15.4-14.2-24.7c24.9-29 39.6-64.7 39.6-103.4c0-92.8-84.9-168.9-192.6-175.5c.4 5.1 .6 10.3 .6 15.5z"/>
</symbol>
<symbol id="g" viewBox="0 0 448 512">
<path d="M224 96C135.6 96 64 167.6 64 256s71.6 160 160 160c77.4 0 142-55 156.8-128H256c-17.7 0-32-14.3-32-32s14.3-32 32-32H400c25.8 0 49.6 21.4 47.2 50.6C437.8 389.6 341.4 480 224 480C100.3 480 0 379.7 0 256S100.3 32 224 32c57.4 0 109.7 21.6 149.3 57c13.2 11.8 14.3 32 2.5 45.2s-32 14.3-45.2 2.5C302.3 111.4 265 96 224 96z"/>
</symbol>
<symbol id="angle-up" viewBox="0 0 448 512">
<path d="M201.4 137.4c12.5-12.5 32.8-12.5 45.3 0l160 160c12.5 12.5 12.5 32.8 0 45.3s-32.8 12.5-45.3 0L224 205.3 86.6 342.6c-12.5 12.5-32.8 12.5-45.3 0s-12.5-32.8 0-45.3l160-160z"/>
</symbol>
<symbol id="circle-info" viewBox="0 0 512 512">
<path d="M256 512A256 256 0 1 0 256 0a256 256 0 1 0 0 512zM216 336h24V272H216c-13.3 0-24-10.7-24-24s10.7-24 24-24h48c13.3 0 24 10.7 24 24v88h8c13.3 0 24 10.7 24 24s-10.7 24-24 24H216c-13.3 0-24-10.7-24-24s10.7-24 24-24zm40-208a32 32 0 1 1 0 64 32 32 0 1 1 0-64z"/>
</symbol>
<symbol id="square-check" viewBox="0 0 448 512">
<path d="M64 32C28.7 32 0 60.7 0 96V416c0 35.3 28.7 64 64 64H384c35.3 0 64-28.7 64-64V96c0-35.3-28.7-64-64-64H64zM337 209L209 337c-9.4 9.4-24.6 9.4-33.9 0l-64-64c-9.4-9.4-9.4-24.6 0-33.9s24.6-9.4 33.9 0l47 47L303 175c9.4-9.4 24.6-9.4 33.9 0s9.4 24.6 0 33.9z"/>
</symbol>
<symbol id="ship" viewBox="0 0 576 512">
<path d="M192 32c0-17.7 14.3-32 32-32H352c17.7 0 32 14.3 32 32V64h48c26.5 0 48 21.5 48 48V240l44.4 14.8c23.1 7.7 29.5 37.5 11.5 53.9l-101 92.6c-16.2 9.4-34.7 15.1-50.9 15.1c-19.6 0-40.8-7.7-59.2-20.3c-22.1-15.5-51.6-15.5-73.7 0c-17.1 11.8-38 20.3-59.2 20.3c-16.2 0-34.7-5.7-50.9-15.1l-101-92.6c-18-16.5-11.6-46.2 11.5-53.9L96 240V112c0-26.5 21.5-48 48-48h48V32zM160 218.7l107.8-35.9c13.1-4.4 27.3-4.4 40.5 0L416 218.7V128H160v90.7zM306.5 421.9C329 437.4 356.5 448 384 448c26.9 0 55.4-10.8 77.4-26.1l0 0c11.9-8.5 28.1-7.8 39.2 1.7c14.4 11.9 32.5 21 50.6 25.2c17.2 4 27.9 21.2 23.9 38.4s-21.2 27.9-38.4 23.9c-24.5-5.7-44.9-16.5-58.2-25C449.5 501.7 417 512 384 512c-31.9 0-60.6-9.9-80.4-18.9c-5.8-2.7-11.1-5.3-15.6-7.7c-4.5 2.4-9.7 5.1-15.6 7.7c-19.8 9-48.5 18.9-80.4 18.9c-33 0-65.5-10.3-94.5-25.8c-13.4 8.4-33.7 19.3-58.2 25c-17.2 4-34.4-6.7-38.4-23.9s6.7-34.4 23.9-38.4c18.1-4.2 36.2-13.3 50.6-25.2c11.1-9.4 27.3-10.1 39.2-1.7l0 0C136.7 437.2 165.1 448 192 448c27.5 0 55-10.6 77.5-26.1c11.1-7.9 25.9-7.9 37 0z"/>
</symbol>
<symbol id="unlock" viewBox="0 0 448 512">
<path d="M144 144c0-44.2 35.8-80 80-80c31.9 0 59.4 18.6 72.3 45.7c7.6 16 26.7 22.8 42.6 15.2s22.8-26.7 15.2-42.6C331 33.7 281.5 0 224 0C144.5 0 80 64.5 80 144v48H64c-35.3 0-64 28.7-64 64V448c0 35.3 28.7 64 64 64H384c35.3 0 64-28.7 64-64V256c0-35.3-28.7-64-64-64H144V144z"/>
</symbol>
<symbol id="calendar" viewBox="0 0 448 512">
<path d="M96 32V64H48C21.5 64 0 85.5 0 112v48H448V112c0-26.5-21.5-48-48-48H352V32c0-17.7-14.3-32-32-32s-32 14.3-32 32V64H160V32c0-17.7-14.3-32-32-32S96 14.3 96 32zM448 192H0V464c0 26.5 21.5 48 48 48H400c26.5 0 48-21.5 48-48V192z"/>
</symbol>
<symbol id="route" viewBox="0 0 512 512">
<path d="M512 96c0 50.2-59.1 125.1-84.6 155c-3.8 4.4-9.4 6.1-14.5 5H320c-17.7 0-32 14.3-32 32s14.3 32 32 32h96c53 0 96 43 96 96s-43 96-96 96H139.6c8.7-9.9 19.3-22.6 30-36.8c6.3-8.4 12.8-17.6 19-27.2H416c17.7 0 32-14.3 32-32s-14.3-32-32-32H320c-53 0-96-43-96-96s43-96 96-96h39.8c-21-31.5-39.8-67.7-39.8-96c0-53 43-96 96-96s96 43 96 96zM117.1 489.1c-3.8 4.3-7.2 8.1-10.1 11.3l-1.8 2-.2-.2c-6 4.6-14.6 4-20-1.8C59.8 473 0 402.5 0 352c0-53 43-96 96-96s96 43 96 96c0 30-21.1 67-43.5 97.9c-10.7 14.7-21.7 28-30.8 38.5l-.6 .7zM128 352a32 32 0 1 0 -64 0 32 32 0 1 0 64 0zM416 128a32 32 0 1 0 0-64 32 32 0 1 0 0 64z"/>
</symbol>
<symbol id="square-caret-right" viewBox="0 0 448 512">
<path d="M448 96c0-35.3-28.7-64-64-64L64 32C28.7 32 0 60.7 0 96L0 416c0 35.3 28.7 64 64 64l320 0c35.3 0 64-28.7 64-64l0-320zM320 256c0 6.7-2.8 13-7.7 17.6l-112 104c-7 6.5-17.2 8.2-25.9 4.4s-14.4-12.5-14.4-22l0-208c0-9.5 5.7-18.2 14.4-22s18.9-2.1 25.9 4.4l112 104c4.9 4.5 7.7 10.9 7.7 17.6z"/>
</symbol>
<symbol id="chevron-up" viewBox="0 0 512 512">
<path d="M233.4 105.4c12.5-12.5 32.8-12.5 45.3 0l192 192c12.5 12.5 12.5 32.8 0 45.3s-32.8 12.5-45.3 0L256 173.3 86.6 342.6c-12.5 12.5-32.8 12.5-45.3 0s-12.5-32.8 0-45.3l192-192z"/>
</symbol>
<symbol id="rotate-left" viewBox="0 0 512 512">
<path d="M48.5 224H40c-13.3 0-24-10.7-24-24V72c0-9.7 5.8-18.5 14.8-22.2s19.3-1.7 26.2 5.2L98.6 96.6c87.6-86.5 228.7-86.2 315.8 1c87.5 87.5 87.5 229.3 0 316.8s-229.3 87.5-316.8 0c-12.5-12.5-12.5-32.8 0-45.3s32.8-12.5 45.3 0c62.5 62.5 163.8 62.5 226.3 0s62.5-163.8 0-226.3c-62.2-62.2-162.7-62.5-225.3-1L185 183c6.9 6.9 8.9 17.2 5.2 26.2s-12.5 14.8-22.2 14.8H48.5z"/>
</symbol>
<symbol id="list-timeline" viewBox="0 0 512 512">
<path d="M16 96a48 48 0 1 1 96 0A48 48 0 1 1 16 96zM64 208a48 48 0 1 1 0 96 48 48 0 1 1 0-96zm0 160a48 48 0 1 1 0 96 48 48 0 1 1 0-96zM191.5 54.4c5.5-4.2 12.3-6.4 19.2-6.4H424c13.3 0 24 10.7 24 24v48c0 13.3-10.7 24-24 24H210.7c-6.9 0-13.7-2.2-19.2-6.4l-38.4-28.8c-8.5-6.4-8.5-19.2 0-25.6l38.4-28.8zM153.1 243.2l38.4-28.8c5.5-4.2 12.3-6.4 19.2-6.4H488c13.3 0 24 10.7 24 24v48c0 13.3-10.7 24-24 24H210.7c-6.9 0-13.7-2.2-19.2-6.4l-38.4-28.8c-8.5-6.4-8.5-19.2 0-25.6zm0 160l38.4-28.8c5.5-4.2 12.3-6.4 19.2-6.4H424c13.3 0 24 10.7 24 24v48c0 13.3-10.7 24-24 24H210.7c-6.9 0-13.7-2.2-19.2-6.4l-38.4-28.8c-8.5-6.4-8.5-19.2 0-25.6z"/>
</symbol>
<symbol id="people-group" viewBox="0 0 640 512">
<path d="M72 88a56 56 0 1 1 112 0A56 56 0 1 1 72 88zM64 245.7C54 256.9 48 271.8 48 288s6 31.1 16 42.3V245.7zm144.4-49.3C178.7 222.7 160 261.2 160 304c0 34.3 12 65.8 32 90.5V416c0 17.7-14.3 32-32 32H96c-17.7 0-32-14.3-32-32V389.2C26.2 371.2 0 332.7 0 288c0-61.9 50.1-112 112-112h32c24 0 46.2 7.5 64.4 20.3zM448 416V394.5c20-24.7 32-56.2 32-90.5c0-42.8-18.7-81.3-48.4-107.7C449.8 183.5 472 176 496 176h32c61.9 0 112 50.1 112 112c0 44.7-26.2 83.2-64 101.2V416c0 17.7-14.3 32-32 32H480c-17.7 0-32-14.3-32-32zm8-328a56 56 0 1 1 112 0A56 56 0 1 1 456 88zM576 245.7v84.7c10-11.3 16-26.1 16-42.3s-6-31.1-16-42.3zM320 32a64 64 0 1 1 0 128 64 64 0 1 1 0-128zM240 304c0 16.2 6 31 16 42.3V261.7c-10 11.3-16 26.1-16 42.3zm144-42.3v84.7c10-11.3 16-26.1 16-42.3s-6-31.1-16-42.3zM448 304c0 44.7-26.2 83.2-64 101.2V448c0 17.7-14.3 32-32 32H288c-17.7 0-32-14.3-32-32V405.2c-37.8-18-64-56.5-64-101.2c0-61.9 50.1-112 112-112h32c61.9 0 112 50.1 112 112z"/>
</symbol>
<symbol id="xmark" viewBox="0 0 384 512">
<path d="M342.6 150.6c12.5-12.5 12.5-32.8 0-45.3s-32.8-12.5-45.3 0L192 210.7 86.6 105.4c-12.5-12.5-32.8-12.5-45.3 0s-12.5 32.8 0 45.3L146.7 256 41.4 361.4c-12.5 12.5-12.5 32.8 0 45.3s32.8 12.5 45.3 0L192 301.3 297.4 406.6c12.5 12.5 32.8 12.5 45.3 0s12.5-32.8 0-45.3L237.3 256 342.6 150.6z"/>
</symbol>
<symbol id="check" viewBox="0 0 448 512">
<path d="M438.6 105.4c12.5 12.5 12.5 32.8 0 45.3l-256 256c-12.5 12.5-32.8 12.5-45.3 0l-128-128c-12.5-12.5-12.5-32.8 0-45.3s32.8-12.5 45.3 0L160 338.7 393.4 105.4c12.5-12.5 32.8-12.5 45.3 0z"/>
</symbol>
<symbol id="trash-can" viewBox="0 0 448 512">
<path d="M135.2 17.7C140.6 6.8 151.7 0 163.8 0H284.2c12.1 0 23.2 6.8 28.6 17.7L320 32h96c17.7 0 32 14.3 32 32s-14.3 32-32 32H32C14.3 96 0 81.7 0 64S14.3 32 32 32h96l7.2-14.3zM32 128H416V448c0 35.3-28.7 64-64 64H96c-35.3 0-64-28.7-64-64V128zm96 64c-8.8 0-16 7.2-16 16V432c0 8.8 7.2 16 16 16s16-7.2 16-16V208c0-8.8-7.2-16-16-16zm96 0c-8.8 0-16 7.2-16 16V432c0 8.8 7.2 16 16 16s16-7.2 16-16V208c0-8.8-7.2-16-16-16zm96 0c-8.8 0-16 7.2-16 16V432c0 8.8 7.2 16 16 16s16-7.2 16-16V208c0-8.8-7.2-16-16-16z"/>
</symbol>
<symbol id="upload" viewBox="0 0 512 512">
<path d="M288 109.3V352c0 17.7-14.3 32-32 32s-32-14.3-32-32V109.3l-73.4 73.4c-12.5 12.5-32.8 12.5-45.3 0s-12.5-32.8 0-45.3l128-128c12.5-12.5 32.8-12.5 45.3 0l128 128c12.5 12.5 12.5 32.8 0 45.3s-32.8 12.5-45.3 0L288 109.3zM64 352H192c0 35.3 28.7 64 64 64s64-28.7 64-64H448c35.3 0 64 28.7 64 64v32c0 35.3-28.7 64-64 64H64c-35.3 0-64-28.7-64-64V416c0-35.3 28.7-64 64-64zM432 456a24 24 0 1 0 0-48 24 24 0 1 0 0 48z"/>
</symbol>
<symbol id="envelope" viewBox="0 0 512 512">
<path d="M48 64C21.5 64 0 85.5 0 112c0 15.1 7.1 29.3 19.2 38.4L236.8 313.6c11.4 8.5 27 8.5 38.4 0L492.8 150.4c12.1-9.1 19.2-23.3 19.2-38.4c0-26.5-21.5-48-48-48H48zM0 176V384c0 35.3 28.7 64 64 64H448c35.3 0 64-28.7 64-64V176L294.4 339.2c-22.8 17.1-54 17.1-76.8 0L0 176z"/>
</symbol>
</svg>